<svg width="25" height="24" viewBox="0 0 25 24" fill="none" xmlns="http://www.w3.org/2000/svg">
<path d="M8.36189 19.3248C8.36189 19.424 8.24597 19.5034 8.0998 19.5034C7.93347 19.5183 7.81754 19.4389 7.81754 19.3248C7.81754 19.2255 7.93347 19.1461 8.07964 19.1461C8.23085 19.1312 8.36189 19.2106 8.36189 19.3248ZM6.79435 19.1014C6.75907 19.2007 6.85988 19.3148 7.01109 19.3446C7.14214 19.3942 7.29335 19.3446 7.32359 19.2454C7.35383 19.1461 7.25806 19.032 7.10685 18.9873C6.97581 18.9526 6.82964 19.0022 6.79435 19.1014ZM9.02218 19.0171C8.87601 19.0518 8.7752 19.1461 8.79032 19.2603C8.80544 19.3595 8.93649 19.424 9.0877 19.3893C9.23387 19.3545 9.33468 19.2603 9.31956 19.161C9.30443 19.0667 9.16835 19.0022 9.02218 19.0171ZM12.3387 0C5.34778 0 0 5.22573 0 12.109C0 17.6126 3.51815 22.3222 8.54335 23.9798C9.18851 24.0939 9.41532 23.7019 9.41532 23.3793C9.41532 23.0716 9.4002 21.3744 9.4002 20.3322C9.4002 20.3322 5.87198 21.0766 5.13105 18.8533C5.13105 18.8533 4.55645 17.4092 3.72984 17.037C3.72984 17.037 2.5756 16.2578 3.81048 16.2727C3.81048 16.2727 5.06552 16.372 5.75605 17.5531C6.85988 19.4687 8.70968 18.9178 9.43044 18.5903C9.54637 17.7963 9.87399 17.2454 10.2369 16.9179C7.41935 16.6102 4.57661 16.2082 4.57661 11.4341C4.57661 10.0693 4.95968 9.38447 5.76613 8.51103C5.63508 8.18846 5.20665 6.85846 5.89718 5.14136C6.9506 4.81878 9.375 6.48129 9.375 6.48129C10.3831 6.20338 11.4667 6.05946 12.5403 6.05946C13.6139 6.05946 14.6976 6.20338 15.7056 6.48129C15.7056 6.48129 18.13 4.81382 19.1835 5.14136C19.874 6.86342 19.4456 8.18846 19.3145 8.51103C20.121 9.38943 20.6149 10.0743 20.6149 11.4341C20.6149 16.2231 17.6462 16.6052 14.8286 16.9179C15.2923 17.3099 15.6855 18.0543 15.6855 19.2205C15.6855 20.893 15.6704 22.9624 15.6704 23.3694C15.6704 23.6919 15.9022 24.084 16.5423 23.9699C21.5827 22.3222 25 17.6126 25 12.109C25 5.22573 19.3296 0 12.3387 0ZM4.89919 17.1164C4.83367 17.166 4.84879 17.2801 4.93448 17.3744C5.01512 17.4538 5.13105 17.4886 5.19657 17.424C5.2621 17.3744 5.24698 17.2603 5.16129 17.166C5.08065 17.0866 4.96472 17.0518 4.89919 17.1164ZM4.35484 16.7144C4.31956 16.7789 4.36996 16.8583 4.47077 16.9079C4.55141 16.9576 4.65222 16.9427 4.6875 16.8732C4.72278 16.8087 4.67238 16.7293 4.57157 16.6796C4.47077 16.6499 4.39012 16.6648 4.35484 16.7144ZM5.9879 18.4811C5.90726 18.5456 5.9375 18.6945 6.05343 18.7888C6.16936 18.9029 6.31552 18.9178 6.38105 18.8384C6.44657 18.7739 6.41633 18.625 6.31552 18.5307C6.20464 18.4166 6.05343 18.4017 5.9879 18.4811ZM5.41331 17.7516C5.33266 17.8012 5.33266 17.9302 5.41331 18.0444C5.49395 18.1585 5.63004 18.2082 5.69556 18.1585C5.77621 18.094 5.77621 17.965 5.69556 17.8508C5.625 17.7367 5.49395 17.6871 5.41331 17.7516Z" fill="#1C1C1C"/>
</svg>
