<svg width="24" height="24" viewBox="0 0 24 24" fill="none" xmlns="http://www.w3.org/2000/svg">
<path fill-rule="evenodd" clip-rule="evenodd" d="M1.66154 0C0.743901 0 0 0.743889 0 1.66154V22.3385C0 23.2561 0.743889 24 1.66154 24H22.3385C23.2561 24 24 23.2561 24 22.3385V1.66154C24 0.743901 23.2561 0 22.3385 0H1.66154ZM9.38934 7.59556H15.4814C15.7177 7.59556 15.9538 7.68567 16.134 7.86592C16.2226 7.95441 16.2894 8.05642 16.3344 8.16529C16.3796 8.27413 16.4044 8.39347 16.4044 8.51863V14.6107C16.4044 15.1205 15.9911 15.5338 15.4814 15.5338C14.9716 15.5338 14.5583 15.1205 14.5583 14.6107V10.7471L9.17178 16.1337C8.8113 16.4942 8.22684 16.4942 7.86635 16.1337C7.50587 15.7732 7.50587 15.1887 7.86635 14.8282L13.2529 9.44171H9.38934C8.87955 9.44171 8.46627 9.02843 8.46627 8.51863C8.46627 8.00882 8.87955 7.59556 9.38934 7.59556Z" fill="#FAC328"/>
</svg>
