<svg preserveAspectRatio="none" width="100%" height="100%" overflow="visible" style="display: block;" viewBox="0 0 166 50" fill="none" xmlns="http://www.w3.org/2000/svg">
<g id="Layer_1" clip-path="url(#clip0_0_4)">
<path id="Vector" d="M9.34233 24L6.02233 13.5385H4.32372V24H0V0.461538H8.72465C11.6586 0.461538 12.9712 1.76923 12.9712 4.69231V8.92308C12.9712 11.2308 12.2763 12.3846 10.1916 12.9231L13.8977 23.9231C13.8205 24 9.34233 24 9.34233 24ZM8.57023 5.76923C8.57023 4.30769 8.10698 3.84615 6.56279 3.84615H4.32372V10.0769H6.56279C8.02977 10.0769 8.57023 9.53846 8.57023 7.84615V5.76923Z" fill="var(--fill-0, white)"/>
<path id="Vector_2" d="M15.2874 24V0.461538H26.7916V4H19.6884V9.53846H26.4056V13.0769H19.6884V20.3077H27.0233V24H15.2874Z" fill="var(--fill-0, white)"/>
<path id="Vector_3" d="M41.0753 13C40.3805 13.9231 39.3767 14.2308 37.1377 14.2308H33.4316V24H29.1079V0.461538H37.9098C37.987 0.461538 38.6047 0.461538 38.9907 0.538462C40.4577 0.846154 41.0753 1.76923 41.307 2.23077C41.8474 3.23077 41.8474 4.69231 41.8474 5.76923V8.84615C41.9247 11.0769 41.8474 12.2308 41.0753 13ZM37.6009 6.30769C37.6009 5.61538 37.6781 5 37.2921 4.38462C36.8288 3.69231 35.8251 3.92308 35.7479 3.92308H33.6633V10.8462H35.7479C36.6744 10.8462 37.2149 10.7692 37.4465 10.3846C37.7553 9.92308 37.7554 9.15385 37.7554 8.69231V6.30769H37.6009Z" fill="var(--fill-0, white)"/>
<path id="Vector_4" d="M52.9656 24L49.6456 13.5385H47.947V24H43.6233V0.461538H52.4251C55.3591 0.461538 56.6716 1.76923 56.6716 4.69231V8.92308C56.6716 11.2308 55.9767 12.3846 53.8921 12.9231L57.5981 23.9231C57.5981 24 52.9656 24 52.9656 24ZM52.4251 5.76923C52.4251 4.30769 51.8847 3.84615 50.4177 3.84615H48.1786V10.0769H50.4177C51.8847 10.0769 52.4251 9.53846 52.4251 7.84615V5.76923Z" fill="var(--fill-0, white)"/>
<path id="Vector_5" d="M70.2605 22.9231C68.7935 24.2308 66.9405 24.4615 65.1647 24.4615C63.3888 24.4615 61.613 24.2308 60.2233 23.1538C59.5284 22.6154 59.2195 22.0769 59.1423 21.6923C58.6791 20.7692 58.6019 19.9231 58.6019 19V5.76923C58.6019 5.30769 58.5247 2.84615 60.0688 1.53846C60.9954 0.769231 62.6167 0 65.1647 0C68.6391 0 70.4149 1.46154 71.1098 2.76923C71.4186 3.53846 71.6502 4.23077 71.6502 5.84615V18.9231C71.6502 20.4615 71.4186 21.9231 70.2605 22.9231ZM67.2493 6.23077C67.2493 6.15385 67.3265 5 67.0177 4.30769C66.786 3.84615 66.3228 3.30769 65.2419 3.30769C65.0102 3.30769 64.3153 3.30769 63.7749 3.76923C62.7712 4.46154 62.8484 5.46154 62.8484 6.46154V18.3846C62.8484 19.0769 62.8484 19.9231 63.3116 20.6154C63.8521 21.3077 64.8558 21.3077 65.0874 21.3077C65.3191 21.3077 66.014 21.3077 66.4 20.8462C67.1721 20.3077 67.1721 19.3077 67.1721 18.5385C67.2493 18.3077 67.2493 6.23077 67.2493 6.23077Z" fill="var(--fill-0, white)"/>
<path id="Vector_6" d="M86.7061 19C86.6288 21.4615 85.4707 22.7692 84.467 23.3077C83.2316 24 81.9963 24.0769 80.6837 24.0769H73.6577V0.461538H81.6874C82.3823 0.461538 83.6949 0.538462 84.9302 1.53846C86.4744 2.84615 86.7061 4.61538 86.7061 6.53846V17.5385C86.7061 18.1538 86.7061 18.5385 86.7061 19ZM82.3051 6.30769C82.3051 5.53846 82.3051 4.84615 81.7647 4.30769C81.2242 3.84615 80.4521 3.84615 79.7572 3.84615H78.0586V20.5385H79.6028C80.066 20.5385 80.5293 20.5385 80.8381 20.4615C82.3051 20.2308 82.3051 19.1538 82.3051 18V6.30769Z" fill="var(--fill-0, white)"/>
<path id="Vector_7" d="M100.835 22.4615C99.1368 24.6923 95.894 24.4615 95.3535 24.4615C93.5777 24.4615 91.8019 24.1538 90.5665 22.7692C90.3349 22.5385 89.8716 22 89.5628 21.2308C89.254 20.3077 89.0995 19.4615 89.0995 18.6923V0.461538H93.4233V17.9231C93.4233 18.6154 93.4233 19.1538 93.6549 19.6923C94.1181 20.6923 95.1991 20.6923 95.4307 20.6923C95.6623 20.6923 96.2028 20.6923 96.666 20.3846C97.5926 19.8462 97.4381 18.6923 97.4381 17.9231V0.461538H101.762V18.6923C101.839 20.1538 101.762 21.2308 100.835 22.4615Z" fill="var(--fill-0, white)"/>
<path id="Vector_8" d="M116.818 21.3077C115.737 24.5385 111.336 24.5385 110.795 24.5385C109.792 24.5385 108.865 24.4615 108.556 24.3077C106.78 24 105.313 23.2308 104.541 21.5385C104.233 20.6154 104.233 20 104.233 19.0769V6.23077C104.233 5.76923 104.233 5.30769 104.31 5C104.387 3.53846 104.773 2.30769 106.008 1.30769C106.935 0.538462 108.247 0 110.795 0C112.262 0 113.884 0.230769 115.119 1.07692C115.814 1.53846 116.354 2.07692 116.586 2.84615C116.895 3.61538 117.049 4.07692 117.049 5.53846V9.07692H112.803V6.07692C112.803 4.30769 112.494 3.30769 110.564 3.30769C108.865 3.30769 108.556 4.30769 108.556 5.84615V18.4615C108.556 20 108.865 21.1538 110.641 21.1538C112.571 21.1538 112.726 20.0769 112.726 18.2308V15.1538H116.972V18.4615C117.127 19.4615 117.049 20.4615 116.818 21.3077Z" fill="var(--fill-0, white)"/>
<path id="Vector_9" d="M126.855 3.92308V24.0769H122.531V3.92308H118.13V0.461538H131.179V3.92308H126.855Z" fill="var(--fill-0, white)"/>
<path id="Vector_10" d="M133.109 24V0.461538H137.433V23.9231H133.109V24Z" fill="var(--fill-0, white)"/>
<path id="Vector_11" d="M148.242 24H143.918L139.208 0.538462H143.764L146.08 16.0769L148.242 0.538462H152.72L148.242 24Z" fill="var(--fill-0, white)"/>
<path id="Vector_12" d="M154.187 24V0.461538H165.537V4H158.433V9.53846H165.151V13.0769H158.433V20.3077H165.768V24H154.187Z" fill="var(--fill-0, white)"/>
<path id="Vector_13" d="M4.32372 29.6923V35.6154H11.1181V39.1538H4.32372V49.6154H0V26H11.5814V29.6923H4.32372Z" fill="var(--fill-0, white)"/>
<path id="Vector_14" d="M22.5451 49.4615L19.2251 39H17.5265V49.4615H13.2028V26H21.9274C24.8614 26 26.174 27.3077 26.174 30.2308V34.4615C26.174 36.7692 25.4791 37.9231 23.3944 38.4615L27.0233 49.4615C27.1005 49.5385 22.5451 49.5385 22.5451 49.4615ZM21.8502 31.3077C21.8502 29.8462 21.3098 29.3846 19.8428 29.3846H17.6037V35.4615H19.8428C21.387 35.4615 21.8502 34.9231 21.8502 33.2308V31.3077Z" fill="var(--fill-0, white)"/>
<path id="Vector_15" d="M28.3358 49.4615V26H39.84V29.5385H32.7367V35.0769H39.3767V38.6154H32.6595V45.8462H40.1488V49.5385L28.3358 49.4615Z" fill="var(--fill-0, white)"/>
<path id="Vector_16" d="M41.693 49.4615V26H53.0428V29.5385H46.0167V35.0769H52.734V38.6154H46.0167V45.8462H53.506V49.5385L41.693 49.4615Z" fill="var(--fill-0, white)"/>
<path id="Vector_17" d="M67.9442 44.4615C67.867 46.9231 66.7088 48.2308 65.7051 48.7692C64.4698 49.4615 63.2344 49.5385 61.9219 49.5385H54.8958V26H62.9256C63.6205 26 64.933 26.0769 66.1684 27.0769C67.7126 28.3846 67.9442 30.1538 67.9442 32.0769V43.0769C67.9442 43.5385 67.9442 44 67.9442 44.4615ZM63.6205 31.7692C63.6205 31 63.6205 30.3077 63.08 29.7692C62.5395 29.3077 61.7674 29.3077 61.0726 29.3077H59.374V46H60.9181C61.3814 46 61.8447 46 62.1535 45.9231C63.6205 45.6923 63.6205 44.6154 63.6205 43.4615V31.7692Z" fill="var(--fill-0, white)"/>
<path id="Vector_18" d="M81.4558 48.4615C79.9888 49.7692 78.1358 50 76.36 50C74.5842 50 72.8084 49.7692 71.4186 48.6923C70.7237 48.1538 70.4149 47.6154 70.3377 47.2308C69.8744 46.3077 69.7972 45.3077 69.7972 44.5385V31.3077C69.7972 30.7692 69.72 28.3846 71.2642 27.0769C72.1907 26.3077 73.8121 25.5385 76.36 25.5385C79.8344 25.5385 81.6102 27 82.3051 28.3077C82.614 29.0769 82.8456 29.8462 82.8456 31.3846V44.3846C82.7684 46 82.5368 47.3846 81.4558 48.4615ZM78.4447 31.6923C78.4447 31.6154 78.5219 30.4615 78.213 29.7692C77.9814 29.3077 77.5182 28.7692 76.4372 28.7692C76.2056 28.7692 75.5107 28.7692 74.9702 29.2308C73.9665 29.9231 74.0437 30.9231 74.0437 31.9231V43.8462C74.0437 44.5385 74.0437 45.3846 74.507 46.0769C74.9702 46.7692 76.0512 46.7692 76.2828 46.7692C76.5144 46.7692 77.2093 46.7692 77.5954 46.3077C78.3675 45.7692 78.3675 44.8462 78.3675 44V31.6923H78.4447Z" fill="var(--fill-0, white)"/>
<path id="Vector_19" d="M100.063 49.4615L100.372 29.1538L96.5888 49.4615H92.574L88.6363 29.1538L88.9451 49.4615H84.6986V26H91.7247L94.5042 42.4615L97.2837 26H104.31V49.5385C104.387 49.5385 100.063 49.5385 100.063 49.4615Z" fill="var(--fill-0, white)"/>
<path id="Vector_20" d="M106.394 37.7692H108.865V32.6923H112.108V30.6923H108.865V28.1538H112.34V26.0769H106.394V37.7692Z" fill="var(--fill-0, white)"/>
<path id="Vector_21" d="M119.366 27.2308C119.134 26.7692 118.362 25.7692 116.354 25.7692C114.887 25.7692 114.115 26.2308 113.807 26.5385C113.266 27 113.034 27.7692 113.034 28.6154V35.0769C113.034 35.6154 113.112 36.0769 113.266 36.3846C113.343 36.4615 113.498 36.8462 113.961 37.1538C114.733 37.8462 115.737 37.8462 116.432 37.8462C117.127 37.8462 118.207 37.7692 118.98 37.0769C119.674 36.3846 119.674 35.7692 119.674 35.0769V28.7692C119.597 28 119.443 27.6923 119.366 27.2308ZM117.127 28.9231V34.9231C117.127 35.2308 117.127 35.6923 116.818 35.9231C116.586 36 116.354 36 116.277 36C115.968 36 115.737 35.9231 115.582 35.7692C115.505 35.5385 115.505 35.2308 115.505 34.8462V28.9231V28.8462C115.505 28.3846 115.505 28.0769 115.814 27.8462C116.046 27.7692 116.277 27.6154 116.354 27.6154C116.818 27.6154 117.049 27.8462 117.049 28.0769C117.127 28.2308 117.127 28.5385 117.127 28.9231Z" fill="var(--fill-0, white)"/>
<path id="Vector_22" d="M125.928 32.3077C126.855 32 127.241 31.3846 127.241 30.2308V28.1538C127.241 26.6923 126.546 25.9231 125.002 25.9231H120.678V37.8462H123.149V32.7692H123.689L125.388 37.8462H127.936C127.704 37.7692 125.928 32.3077 125.928 32.3077ZM124.847 29.7692C124.847 30.4615 124.77 30.6923 124.075 30.6923H123.149V28H124.075C124.77 28 124.847 28.0769 124.847 28.7692V29.7692Z" fill="var(--fill-0, white)"/>
<path id="Vector_23" d="M135.888 49.4615L135.348 45.5385H131.333L130.638 49.4615H126.314L130.87 26H135.888L140.212 49.4615H135.888ZM133.418 32L131.873 42.0769H134.885C134.885 42 133.418 32 133.418 32Z" fill="var(--fill-0, white)"/>
<path id="Vector_24" d="M154.187 49.4615V26H158.511V45.9231H166V49.4615H154.187Z" fill="var(--fill-0, white)"/>
<path id="Vector_25" d="M141.447 49.4615V26H145.771V45.9231H153.26V49.4615H141.447Z" fill="var(--fill-0, white)"/>
</g>
<defs>
<clipPath id="clip0_0_4">
<rect width="166" height="50" fill="white"/>
</clipPath>
</defs>
</svg>
