<svg preserveAspectRatio="none" width="100%" height="100%" overflow="visible" style="display: block;" viewBox="0 0 157.932 50" fill="none" xmlns="http://www.w3.org/2000/svg">
<g id="Group 231">
<path id="Vector" d="M28.6086 20.4107C32.9988 19.461 35.0967 17.0869 35.0967 13.2898C35.0967 7.64157 31.5841 5.36301 22.7542 5.36301H8.51073V8.92232H10.9504C11.6329 8.92232 11.8767 9.25567 11.8767 10.252V31.9442C11.8767 32.942 11.6329 33.3212 10.9504 33.3212H8.51073V36.8805H22.706C32.2673 36.8805 36.4136 34.2709 36.4136 28.2419C36.4136 23.7322 33.8762 21.1699 28.6086 20.4107ZM18.5589 8.92232H22.5593C26.6574 8.92232 28.121 10.252 28.121 14.0972C28.121 17.7047 26.2179 19.2232 22.2665 19.2232H18.5589V8.92232ZM22.9987 33.3212H18.5589V22.3092H23.2915C27.4377 22.3092 29.2912 23.8278 29.2912 27.91C29.2912 31.8493 27.5845 33.3212 22.9987 33.3212Z" fill="var(--fill-0, white)"/>
<path id="Vector_2" d="M49.7307 10.9224C42.4133 10.9224 37.3889 16.3223 37.3889 24.213C37.3889 32.0013 41.7308 37.5555 50.3658 37.5555C56.5115 37.5555 59.7315 34.3378 61.0484 30.2871L57.3408 28.5225C56.2188 31.5852 54.2676 33.4025 50.9016 33.4025C46.4626 33.4025 44.2675 30.2871 44.1215 25.563H61.3893V24.2656C61.3893 15.9069 57.243 10.9224 49.7307 10.9224ZM44.0237 22.033C44.3164 17.0485 46.2669 14.9204 49.7307 14.9204C53.1945 14.9204 54.6573 16.8927 54.7559 22.033H44.0237Z" fill="var(--fill-0, white)"/>
<path id="Vector_3" d="M78.0909 10.9224C75.2615 10.9224 72.7737 12.5839 71.6517 16.6338V11.0789C70.5297 11.3378 68.3347 11.5981 65.9447 11.5981H61.9933V15.4908H64.2854C64.9205 15.4908 65.1147 15.8031 65.1147 17.0485V31.6371C65.1147 32.8313 64.822 32.9863 64.2854 32.9863H62.14V36.8805H74.8228V32.9863H72.5299C71.9941 32.9863 71.7006 32.8313 71.7006 31.6371V23.6938C71.7006 18.3992 73.3591 15.2319 76.5783 15.2319C77.3105 15.2319 77.8471 15.4396 78.1887 15.7512C76.7258 16.2177 75.8469 17.6723 75.8469 19.0734C75.8469 20.9426 77.3595 22.4995 79.164 22.4995C81.9445 22.4995 83.7979 20.3196 83.7979 17.0485C83.7979 13.3108 81.6028 10.9224 78.0909 10.9224Z" fill="var(--fill-0, white)"/>
<path id="Vector_4" d="M109.207 31.6373V20.371C109.207 14.038 106.525 10.9226 101.5 10.9226C97.6943 10.9226 94.9627 12.6361 93.4509 16.1148V11.0791C92.3778 11.338 90.182 11.5976 87.7928 11.5976H82.2679C83.5457 12.1891 84.4366 14.4466 84.5758 15.497L86.1336 15.491C86.7672 15.491 86.9628 15.8033 86.9628 17.0487V31.6373C86.9628 32.8316 86.6701 32.9866 86.1336 32.9866H83.9867V36.8807H96.2803V32.9866H94.3772C93.8407 32.9866 93.548 32.8316 93.548 31.6373V23.7459C93.548 18.0871 95.4511 15.491 98.72 15.491C101.402 15.491 102.622 16.9968 102.622 20.5275V31.6373C102.622 32.8316 102.33 32.9866 101.792 32.9866H99.8901V36.8807H112.183V32.9866H110.036C109.5 32.9866 109.207 32.8316 109.207 31.6373Z" fill="var(--fill-0, white)"/>
<path id="Vector_5" d="M122.53 31.6371V11.0789C121.408 11.3378 119.213 11.5974 116.822 11.5974H112.92V15.4908H114.823C115.652 15.4908 115.896 15.9589 115.896 17.5677V31.6371C115.896 32.7275 115.652 32.9864 115.116 32.9864H112.92V36.8805H125.359V32.9864H123.31C122.774 32.9864 122.53 32.7275 122.53 31.6371Z" fill="var(--fill-0, white)"/>
<path id="Vector_6" d="M149.42 24.2653C149.42 15.9065 145.274 10.922 137.762 10.922C130.444 10.922 125.42 16.3227 125.42 24.2134C125.42 32.0009 129.762 37.5559 138.396 37.5559C144.542 37.5559 147.762 34.3374 149.079 30.2875L145.372 28.5221C144.25 31.5848 142.299 33.4028 138.932 33.4028C134.493 33.4028 132.298 30.2875 132.152 25.5633H149.42V24.2653ZM132.055 22.0326C132.347 17.0488 134.298 14.9208 137.762 14.9208C141.225 14.9208 142.688 16.8931 142.786 22.0326H132.055Z" fill="var(--fill-0, white)"/>
<path id="Vector_7" d="M114.833 9.90134L117.965 7.55959L121.09 9.90134L119.892 6.10802L123.011 3.77378H119.158L117.965 0L116.766 3.77378H112.92L116.031 6.10802L114.833 9.90134Z" fill="var(--fill-0, white)"/>
<path id="Vector_8" d="M157.932 48.2033C157.932 48.2033 157.348 48.0761 156.253 47.8398C155.707 47.7217 155.031 47.5953 154.239 47.438C153.444 47.2958 152.529 47.1325 151.504 46.9699C149.458 46.6185 146.959 46.2965 144.094 45.9932C141.228 45.6727 137.989 45.4018 134.453 45.2106C130.917 45.0022 127.086 44.8652 123.029 44.796C121 44.7696 118.92 44.7471 116.791 44.7539C114.661 44.7614 112.486 44.787 110.274 44.8223C105.853 44.9149 101.281 45.0631 96.64 45.3047C91.9993 45.5237 87.2878 45.8435 82.5772 46.1986C80.2226 46.3815 77.8687 46.5817 75.5247 46.7931C73.1806 47.0008 70.8456 47.216 68.5316 47.4576C67.3743 47.5818 66.2222 47.7021 65.0746 47.824C63.9278 47.9475 62.7885 48.0709 61.6538 48.1943C60.519 48.3237 59.3917 48.4509 58.272 48.5795C57.1538 48.7097 56.0227 48.8414 54.9143 48.9437C50.4655 49.3855 46.1574 49.688 42.0668 49.8467C40.0215 49.928 38.0311 49.9829 36.1054 49.992C34.1798 50.0123 32.3173 49.9932 30.5286 49.9445C26.9535 49.8542 23.6733 49.6308 20.7739 49.3064C17.876 48.9527 15.3528 48.5547 13.3 48.0324C12.2736 47.7766 11.3623 47.511 10.5782 47.2468C9.79408 46.9767 9.1394 46.699 8.61792 46.4507C8.09644 46.2031 7.70889 45.9781 7.4538 45.8164C7.2017 45.6501 7.07152 45.562 7.07152 45.562C7.07152 45.562 7.21225 45.6199 7.48465 45.7283C7.75932 45.8299 8.16642 45.9706 8.70521 46.1159C9.24477 46.2603 9.91524 46.3988 10.7061 46.5222C11.497 46.6539 12.4105 46.7637 13.437 46.8458C14.4634 46.9218 15.6004 46.9842 16.8398 47.0264C18.0792 47.0647 19.4209 47.0722 20.8552 47.0459C23.723 47.0196 26.9595 46.8857 30.4872 46.6734C32.2511 46.5659 34.0895 46.4327 35.9903 46.2904C37.8896 46.1362 39.8559 45.9751 41.8741 45.7877C45.9121 45.4108 50.1683 44.9736 54.5606 44.4491C56.7685 44.1834 59.0109 43.9125 61.282 43.6401C63.5644 43.376 65.8745 43.1179 68.2058 42.9012C70.5356 42.6664 72.8879 42.4625 75.2478 42.2631C77.6099 42.0697 79.9825 41.9117 82.3544 41.7566C87.1012 41.4474 91.8548 41.2698 96.5324 41.1561C101.213 41.0643 105.821 41.053 110.277 41.1637C112.507 41.2133 114.699 41.2924 116.842 41.3962C118.985 41.503 121.084 41.6197 123.124 41.7762C127.204 42.0772 131.056 42.4768 134.604 42.9403C138.15 43.4204 141.391 43.9592 144.253 44.5123C147.11 45.0872 149.59 45.6696 151.619 46.2182C152.632 46.4846 153.532 46.7645 154.316 46.9948C155.097 47.2438 155.762 47.447 156.296 47.6276C157.362 48.0016 157.932 48.2033 157.932 48.2033Z" fill="var(--fill-0, #FC4F48)"/>
<path id="Vector_9" d="M150.612 40.9255C150.612 40.9255 150.032 40.7893 148.942 40.538C148.399 40.4139 147.724 40.2799 146.934 40.1121C146.142 39.9639 145.23 39.7855 144.207 39.6117C142.166 39.2422 139.674 38.8945 136.813 38.5619C133.953 38.2218 130.718 37.9246 127.186 37.7064C123.656 37.4656 119.827 37.2963 115.775 37.2202C111.724 37.1412 107.45 37.1059 103.031 37.1879C98.6105 37.2774 94.0458 37.4061 89.4066 37.6273C84.7682 37.8433 80.0613 38.1714 75.3544 38.5236C70.6512 38.89 65.9473 39.3144 61.3224 39.7885C60.1658 39.9119 59.0152 40.0346 57.8692 40.1557C56.7231 40.2829 55.5838 40.4078 54.4513 40.5327C52.1885 40.7886 49.9468 41.0715 47.7246 41.2972C43.2916 41.7653 38.9948 42.058 34.9178 42.2574C30.8422 42.4802 26.9803 42.4982 23.4172 42.4689C19.8533 42.4237 16.5852 42.2281 13.6926 41.967C10.8022 41.6652 8.28507 41.3063 6.23525 40.8299C5.20959 40.5944 4.29981 40.3491 3.51495 40.1008C2.73234 39.8495 2.07616 39.5898 1.55392 39.3543C1.03018 39.1188 0.64188 38.9051 0.384529 38.75C0.130935 38.5883 0 38.5047 0 38.5047C0 38.5047 0.139212 38.5657 0.409359 38.6831C0.681012 38.7877 1.08511 38.9404 1.62014 39.0955C2.69246 39.404 4.29079 39.7117 6.3391 39.9164C7.36401 40.0105 8.5003 40.0925 9.73892 40.1512C10.9783 40.2039 12.3193 40.2332 13.7528 40.2279C15.1856 40.2355 16.7116 40.2197 18.3197 40.1731C19.9278 40.1294 21.6187 40.0376 23.3826 39.9609C26.9111 39.8013 30.7293 39.48 34.7688 39.1579C36.7862 38.9841 38.8594 38.7847 40.9754 38.5582C43.0922 38.3287 45.2557 38.1082 47.4515 37.8395C51.8318 37.3128 56.4228 36.7311 61.0666 36.2834C65.717 35.8153 70.4465 35.4135 75.1805 35.1065C79.9145 34.7807 84.6546 34.5978 89.3224 34.4654C93.9887 34.3427 98.5827 34.2961 103.032 34.3901C107.477 34.4782 111.776 34.6264 115.846 34.9041C119.916 35.1825 123.761 35.5377 127.303 35.9591C130.843 36.4008 134.077 36.9012 136.934 37.4242C139.789 37.9637 142.268 38.5123 144.295 39.0338C145.31 39.2866 146.21 39.5522 146.994 39.7712C147.775 40.0083 148.441 40.2016 148.976 40.3747C150.043 40.7322 150.612 40.9255 150.612 40.9255Z" fill="var(--fill-0, white)"/>
</g>
</svg>
