<svg width="99" height="44" viewBox="0 0 99 44" fill="none" xmlns="http://www.w3.org/2000/svg">
<path d="M34.4238 21.3651C37.1332 18.5422 38.1309 14.6764 37.53 10.8899C36.8952 7.02404 34.299 3.75904 30.7166 2.09254C27.1682 0.414691 21.7152 0.494048 18.5636 2.13788C15.412 3.69102 12.9519 7.63622 12.4644 8.27108C12.2603 8.5545 12.3397 9.03065 12.6685 9.30273C13.19 9.74487 16.3302 12.5337 17.3279 13.2479C17.8494 13.6107 18.2802 13.6107 18.7563 13.0892C19.3912 12.4544 20.5929 11.0939 21.2617 10.5044C22.2594 9.66551 23.5291 9.39343 24.334 9.39343C26.2046 9.39343 27.7577 10.2323 28.3586 11.8648C28.9141 13.384 28.5173 15.3339 27.1229 16.2408C26.0119 17.0004 24.0166 17.3178 22.7809 17.5106C21.0237 17.7486 20.9897 18.4629 20.9103 19.1091C20.7856 20.2201 20.7516 22.4534 20.8309 23.8138C20.9103 24.8455 22.146 25.2082 23.3364 25.367C24.5267 25.571 25.4904 25.5257 26.522 25.9225C28.2792 26.5573 29.2315 28.7113 28.9481 30.5025C28.6647 32.3391 26.9982 33.5294 25.2069 33.7675C23.291 34.0056 21.6245 32.7699 20.4228 31.4208C19.822 30.7406 18.745 29.5049 18.3142 28.9947C17.9967 28.632 17.4753 28.7907 17.0445 29.0401C16.3643 29.4369 12.1016 32.3844 11.5121 32.8266C11.1947 33.144 11.1153 33.4274 11.3534 33.7789C12.1923 35.1733 13.19 36.6811 14.3803 38.0755C15.616 39.5493 17.2485 40.7056 19.0057 41.5446C24.5834 44.1747 31.7143 42.4968 35.5007 37.6787C39.3666 32.8039 38.9585 25.7071 34.4238 21.3651Z" fill="white"/>
<path d="M85.1784 0.811523C77.5714 0.811523 71.3589 6.91071 71.3589 14.393V29.607C71.3589 37.1006 77.5714 43.1884 85.1784 43.1884C92.7854 43.1884 98.998 37.0892 98.998 29.607V14.4043C98.998 6.91072 92.7854 0.811523 85.1784 0.811523ZM80.7117 13.9622C80.7117 11.5701 82.707 9.5862 85.1784 9.5862C87.6498 9.5862 89.6451 11.5361 89.6451 13.9622V30.4459C89.6451 32.8379 87.6498 34.8219 85.1784 34.8219C82.7524 34.8219 80.7117 32.872 80.7117 30.4459V13.9622Z" fill="white"/>
<path d="M55.297 15.2546C52.9843 15.2546 51.1364 15.9575 49.878 16.7511C50.0028 15.7534 50.717 10.2551 50.8417 9.21209C50.683 9.21209 62.4165 9.21209 64.1284 9.21209C64.5705 9.21209 64.922 8.92867 64.9673 8.53188C65.0467 7.26216 64.9673 3.39632 64.9673 1.79783C64.9673 1.27634 64.7633 1.03827 64.1284 1.03827C59.8317 1.03827 49.4359 0.99292 45.1393 0.99292C44.1076 0.99292 43.9829 1.70714 43.8696 2.4667C43.4728 5.05149 41.058 22.6462 40.9787 23.1677C40.9333 23.6892 41.024 23.8819 41.5342 24.1993C42.8833 24.8342 45.6494 25.8432 46.2843 26.1266C46.9985 26.444 47.3953 26.7614 48.0755 26.0019C49.8667 24.0519 51.2951 22.9409 53.5285 22.9409C57.2356 22.9409 59.435 25.1176 59.4123 28.5186C59.3896 31.9197 56.8502 33.915 53.7552 33.915C51.2611 33.915 50.1275 33.2347 48.4723 31.999C47.7127 31.4435 46.7151 30.684 46.0802 30.0831C45.4794 29.5616 45.0826 29.7657 44.2437 30.6386C43.0873 31.829 41.3755 33.8696 40.2645 34.9806C39.709 35.5361 39.6636 35.9329 40.2191 36.5337C41.4888 37.9282 42.8039 39.0392 44.5158 40.2409C47.2139 42.1114 50.7737 43.0071 54.1974 42.939C61.5096 42.939 68.5044 37.5427 68.5044 29.0061C68.5157 21.4898 63.8563 15.2546 55.297 15.2546Z" fill="white"/>
<path opacity="0.6" d="M14.8257 23.5985C14.8257 22.1701 14.8257 19.0978 14.8257 18.7804C14.8257 18.1455 14.5083 17.6694 14.0321 17.6694C13.7147 17.6694 9.13462 17.6694 9.13462 17.6694V12.171C9.13462 11.7289 8.81719 11.2981 8.37505 11.1734C7.93292 11.0487 7.42276 11.2188 7.13934 11.5702L0.212565 20.5716C-0.0708549 20.9344 -0.0708549 21.4105 0.212565 21.762L7.13934 30.8087C7.3434 31.0921 7.69484 31.2509 8.01227 31.2509C8.13698 31.2509 8.25035 31.2509 8.3297 31.2055C8.77184 31.0808 9.08927 30.65 9.08927 30.2079V24.8342C9.08927 24.8342 13.0685 24.8342 13.59 24.8342C14.5536 24.8342 14.8257 24.2787 14.8257 23.5985Z" fill="white"/>
</svg>
