<svg width="186" height="163" viewBox="0 0 186 163" fill="none" xmlns="http://www.w3.org/2000/svg">
<rect width="186" height="163" fill="#EF2940"/>
<g clip-path="url(#clip0_386_372)">
<path d="M45.6986 51.1295L44.9162 49.4049H39.9686L39.1862 51.1295H37L42.0397 40.3679H44.64L49.6797 51.1295H45.6986ZM42.4539 44.1161L40.9121 47.4273H43.9957L42.4539 44.1161ZM62.1983 51.1295V44.622L59.4828 48.5311H57.4808L55.1105 45.1508V51.1295H53.1545V40.3679H56.1461L59.4598 45.1278L62.7966 40.3679H65.7882V51.1295H62.1983ZM70.9429 51.1295V40.3679H79.8025V42.3225H74.5558V44.3H78.1917V46.2546H74.5558V49.1519H79.8025V51.1065H70.9429V51.1295ZM96.4173 51.1295H91.6768L87.8798 46.8295V51.1295H84.2899V40.3679H90.4111C92.9885 40.3679 95.0596 41.9776 95.0596 43.9551C95.0596 45.2658 94.1391 46.3926 92.8044 47.0134L96.4173 51.1295ZM89.3526 42.3225H87.8798V45.5647H89.3526C90.4802 45.5647 91.4467 44.8289 91.4467 43.9551C91.4697 43.0583 90.5032 42.3225 89.3526 42.3225ZM99.7771 51.1295V40.3679H103.367V51.1295H99.7771ZM114.85 49.3359C116.53 49.3359 117.496 48.0712 118.164 47.2664L119.36 48.4621C118.049 50.4166 116.277 51.4514 113.93 51.4514C110.616 51.4514 107.9 48.899 107.9 45.7027C107.877 42.5754 110.593 40 113.907 40C116.277 40 118.187 41.0578 119.337 42.9893L118.141 44.1851C117.473 43.3802 116.507 42.1155 114.827 42.1155C113.124 42.1155 111.72 43.6792 111.72 45.7027C111.743 47.7492 113.147 49.3359 114.85 49.3359ZM130.659 51.1295L129.877 49.4049H124.952L124.17 51.1295H121.984L127.023 40.3679H129.624L134.663 51.1295H130.659ZM127.415 44.1161L125.873 47.4273H128.956L127.415 44.1161ZM145.387 51.1295L140.094 44.8059V51.1295H138.138V40.3679H141.061L146.354 46.6685V40.3679H148.31V51.1295H145.387Z" fill="white"/>
<path d="M37.2071 74.6532V63.8916H46.0668V65.8462H40.797V67.8237H44.4329V69.7783H40.797V72.6756H46.0438V74.6302H37.2071V74.6532ZM56.7214 72.8596C58.4013 72.8596 59.3678 71.5949 60.0351 70.79L61.2318 71.9858C59.9201 73.9403 58.1481 74.9751 55.7779 74.9751C52.4641 74.9751 49.7487 72.4227 49.7487 69.2264C49.7487 66.0761 52.4641 63.5237 55.7779 63.5237C58.1481 63.5237 60.0581 64.5814 61.2318 66.513L60.0351 67.7087C59.3678 66.9039 58.4013 65.6392 56.7214 65.6392C55.0185 65.6392 53.6147 67.2028 53.6147 69.2264C53.6147 71.2729 55.0185 72.8596 56.7214 72.8596ZM70.7588 74.9981C67.445 74.9981 64.7296 72.4457 64.7296 69.2954C64.7296 66.1451 67.445 63.5697 70.7588 63.5697C74.0725 63.5697 76.788 66.1451 76.788 69.2954C76.788 72.4457 74.0725 74.9981 70.7588 74.9981ZM70.7588 65.6852C69.5622 65.6852 68.5956 67.2948 68.5956 69.2724C68.5956 71.2499 69.5622 72.8596 70.7588 72.8596C71.9554 72.8596 72.9219 71.2499 72.9219 69.2724C72.9219 67.2948 71.9554 65.6852 70.7588 65.6852ZM88.3861 74.6532L83.0703 68.3296V74.6532H81.1142V63.8916H84.0368L89.3296 70.1922V63.8916H91.2856V74.6532H88.3861ZM101.641 74.9981C98.3273 74.9981 95.6119 72.4457 95.6119 69.2954C95.6119 66.1451 98.3273 63.5697 101.641 63.5697C104.955 63.5697 107.67 66.1451 107.67 69.2954C107.67 72.4457 104.955 74.9981 101.641 74.9981ZM101.641 65.6852C100.444 65.6852 99.4779 67.2948 99.4779 69.2724C99.4779 71.2499 100.444 72.8596 101.641 72.8596C102.838 72.8596 103.804 71.2499 103.804 69.2724C103.804 67.2948 102.838 65.6852 101.641 65.6852ZM121.04 74.6532V68.1686L118.325 72.0548H116.323L113.953 68.6745V74.6532H111.997V63.8916H114.988L118.302 68.6515L121.639 63.8916H124.607V74.6532H121.04ZM129.601 74.6532V63.8916H133.191V74.6532H129.601ZM144.49 72.8596C146.17 72.8596 147.136 71.5949 147.803 70.79L149 71.9858C147.688 73.9403 145.916 74.9751 143.569 74.9751C140.255 74.9751 137.54 72.4227 137.54 69.2264C137.54 66.0761 140.232 63.5237 143.569 63.5237C145.939 63.5237 147.849 64.5814 149 66.513L147.803 67.7087C147.136 66.9039 146.17 65.6392 144.49 65.6392C142.787 65.6392 141.383 67.2028 141.383 69.2264C141.406 71.2729 142.787 72.8596 144.49 72.8596Z" fill="white"/>
<path d="M37.1381 98.1539V87.3923H40.728V96.1763H45.9747V98.1309H37.1381V98.1539ZM49.6567 98.1539V87.3923H53.2466V98.1539H49.6567ZM58.6774 87.3923H65.535C67.6521 87.3923 69.3781 88.726 69.3781 90.3587C69.3781 91.1175 69.0099 91.7843 68.3885 92.3132C69.194 92.9341 69.7232 93.7849 69.7232 94.7507C69.7232 96.6362 67.7442 98.1539 65.3049 98.1539H58.6774V87.3923ZM64.2694 89.3699H62.2903V91.3474H64.2694C64.9827 91.3474 65.558 90.9105 65.558 90.3587C65.558 89.8068 64.9827 89.3699 64.2694 89.3699ZM64.1543 93.302H62.2903V96.1993H64.1543C65.1899 96.1993 66.0413 95.5555 66.0413 94.7507C66.0183 93.9688 65.1899 93.302 64.1543 93.302ZM74.8319 98.1539V87.3923H83.6916V89.3469H78.4218V91.3244H82.0577V93.279H78.4218V96.1763H83.6686V98.1309H74.8319V98.1539ZM100.606 98.1539H95.865L92.068 93.8539V98.1539H88.4781V87.3923H94.5993C97.1767 87.3923 99.2478 89.002 99.2478 90.9795C99.2478 92.2902 98.3273 93.417 96.9926 94.0378L100.606 98.1539ZM93.5408 89.3699H92.068V92.6122H93.5408C94.6684 92.6122 95.6349 91.8763 95.6349 91.0025C95.6579 90.1057 94.6914 89.3699 93.5408 89.3699ZM109.695 89.3699V98.1539H106.105V89.3699H102.654V87.4153H113.17V89.3699H109.695ZM116.967 98.1539V87.3923H120.557V98.1539H116.967ZM125.988 98.1539V87.3923H134.848V89.3469H129.601V91.3244H133.237V93.279H129.601V96.1763H134.848V98.1309H125.988V98.1539ZM143.891 98.4988C141.567 98.4988 139.818 97.4411 138.691 96.2683L139.749 94.8656C140.716 95.6705 141.935 96.3603 143.408 96.3603C144.329 96.3603 144.812 95.9234 144.812 95.4405C144.812 94.8656 144.213 94.5207 142.442 93.8309C140.209 92.9801 138.99 91.8073 138.99 90.3817C138.99 88.4961 140.854 87.0244 143.546 87.0244C145.594 87.0244 147.55 87.9442 148.586 88.772L147.665 90.2897C146.653 89.6688 145.525 89.1629 144.098 89.1629C143.454 89.1629 143.017 89.4619 143.017 89.8758C143.017 90.2437 143.5 90.7266 145.042 91.2785C148.149 92.4052 148.839 93.8539 148.77 95.1646C148.747 96.7972 147.044 98.4988 143.891 98.4988Z" fill="white"/>
<path d="M40.751 121.678H37.1381V110.916H43.2593C45.8367 110.916 47.9078 112.526 47.9078 114.503C47.9078 116.481 45.8136 118.09 43.2593 118.09H40.751V121.678ZM42.2238 112.894H40.751V116.113H42.2238C43.3513 116.113 44.3179 115.377 44.3179 114.503C44.3179 113.629 43.3513 112.894 42.2238 112.894ZM67.2379 121.678H62.4974L58.7004 117.378V121.678H55.1105V110.916H61.2318C63.8091 110.916 65.8802 112.526 65.8802 114.503C65.8802 115.814 64.9597 116.941 63.625 117.562L67.2379 121.678ZM60.1962 112.894H58.7234V116.113H60.1962C61.3238 116.113 62.2903 115.377 62.2903 114.503C62.2903 113.629 61.3238 112.894 60.1962 112.894ZM79.1582 122.023C75.8445 122.023 73.129 119.47 73.129 116.32C73.129 113.147 75.8445 110.594 79.1582 110.594C82.472 110.594 85.1874 113.17 85.1874 116.32C85.1874 119.47 82.472 122.023 79.1582 122.023ZM79.1582 112.71C77.9616 112.71 76.9951 114.319 76.9951 116.297C76.9951 118.274 77.9616 119.884 79.1582 119.884C80.3548 119.884 81.3214 118.274 81.3214 116.297C81.2983 114.342 80.3318 112.71 79.1582 112.71ZM96.4173 118.688C96.4173 123.586 93.8169 123.954 90.8714 124V122.781C92.3672 122.413 92.8274 121.632 92.8274 118.918V110.916H96.4173V118.688ZM104.702 121.678V110.916H113.561V112.871H108.315V114.848H111.95V116.803H108.315V119.7H113.561V121.655H104.702V121.678ZM127.553 119.884C129.233 119.884 130.199 118.619 130.866 117.814L132.063 119.01C130.751 120.965 128.979 122 126.609 122C123.295 122 120.58 119.447 120.58 116.251C120.58 113.101 123.295 110.548 126.609 110.548C128.979 110.548 130.889 111.606 132.063 113.537L130.866 114.733C130.199 113.928 129.233 112.664 127.553 112.664C125.85 112.664 124.446 114.227 124.446 116.251C124.446 118.32 125.85 119.884 127.553 119.884ZM144.973 112.894V121.678H141.383V112.894H137.931V110.939H148.448V112.894H144.973Z" fill="white"/>
</g>
<defs>
<clipPath id="clip0_386_372">
<rect width="112" height="84" fill="white" transform="translate(37 40)"/>
</clipPath>
</defs>
</svg>
