<svg width="182" height="58" viewBox="0 0 182 58" fill="none" xmlns="http://www.w3.org/2000/svg">
<path d="M32.8552 23.7297C37.8966 22.6391 40.3058 19.9128 40.3058 15.5522C40.3058 9.06598 36.272 6.44934 26.1321 6.44934H9.77551V10.5368H12.5771C13.3609 10.5368 13.6408 10.9196 13.6408 12.0637V36.9745C13.6408 38.1203 13.3609 38.5558 12.5771 38.5558H9.77551V42.6433H26.0768C37.0566 42.6433 41.8181 39.6464 41.8181 32.7228C41.8181 27.544 38.9042 24.6016 32.8552 23.7297ZM21.3145 10.5368H25.9083C30.6144 10.5368 32.2952 12.0637 32.2952 16.4795C32.2952 20.6222 30.1098 22.3661 25.5721 22.3661H21.3145V10.5368ZM26.4129 38.5558H21.3145V25.9099H26.7491C31.5105 25.9099 33.6389 27.6538 33.6389 32.3418C33.6389 36.8656 31.679 38.5558 26.4129 38.5558Z" fill="white"/>
<path d="M57.1066 12.8336C48.7036 12.8336 42.9337 19.0347 42.9337 28.0962C42.9337 37.0401 47.9198 43.4184 57.8359 43.4184C64.8934 43.4184 68.5911 39.7233 70.1033 35.0716L65.8457 33.0452C64.5573 36.5622 62.3165 38.6492 58.4512 38.6492C53.3536 38.6492 50.8329 35.0716 50.6652 29.6465H70.4948V28.1567C70.4948 18.5577 65.7334 12.8336 57.1066 12.8336ZM50.5529 25.5927C50.8891 19.8686 53.1289 17.4248 57.1066 17.4248C61.0843 17.4248 62.7642 19.6898 62.8774 25.5927H50.5529Z" fill="white"/>
<path d="M89.67 12.8336C86.4208 12.8336 83.564 14.7417 82.2755 19.3925V13.0134C80.9871 13.3106 78.4664 13.6096 75.7218 13.6096H71.1842V18.0798H73.8164C74.5457 18.0798 74.7687 18.4385 74.7687 19.8686V36.6218C74.7687 37.9932 74.4325 38.1713 73.8164 38.1713H71.3527V42.6432H85.917V38.1713H83.284C82.6687 38.1713 82.3317 37.9932 82.3317 36.6218V27.4999C82.3317 21.4198 84.2363 17.7826 87.9331 17.7826C88.7739 17.7826 89.39 18.0211 89.7824 18.3788C88.1025 18.9146 87.0931 20.585 87.0931 22.1941C87.0931 24.3406 88.8301 26.1285 90.9023 26.1285C94.0953 26.1285 96.2237 23.6251 96.2237 19.8686C96.2237 15.5764 93.703 12.8336 89.67 12.8336Z" fill="white"/>
<path d="M125.403 36.6222V23.6842C125.403 16.4116 122.323 12.834 116.553 12.834C112.183 12.834 109.046 14.8016 107.31 18.7966V13.0137C106.077 13.311 103.556 13.6091 100.812 13.6091H94.4677C95.935 14.2883 96.9581 16.8808 97.118 18.0871L98.9068 18.0802C99.6344 18.0802 99.8591 18.4388 99.8591 19.869V36.6222C99.8591 37.9936 99.5229 38.1716 98.9068 38.1716H96.4414V42.6436H110.559V38.1716H108.373C107.757 38.1716 107.421 37.9936 107.421 36.6222V27.5599C107.421 21.0615 109.607 18.0802 113.361 18.0802C116.44 18.0802 117.841 19.8094 117.841 23.8639V36.6222C117.841 37.9936 117.506 38.1716 116.889 38.1716H114.704V42.6436H128.821V38.1716H126.356C125.739 38.1716 125.403 37.9936 125.403 36.6222Z" fill="white"/>
<path d="M140.711 36.622V13.0135C139.423 13.3108 136.902 13.6089 134.157 13.6089H129.675V18.08H131.86C132.813 18.08 133.093 18.6175 133.093 20.4651V36.622C133.093 37.8742 132.813 38.1715 132.197 38.1715H129.675V42.6434H143.96V38.1715H141.607C140.991 38.1715 140.711 37.8742 140.711 36.622Z" fill="white"/>
<path d="M171.588 28.1563C171.588 18.5574 166.826 12.8333 158.2 12.8333C149.797 12.8333 144.027 19.0352 144.027 28.0967C144.027 37.0397 149.013 43.4189 158.928 43.4189C165.986 43.4189 169.684 39.7229 171.196 35.0721L166.939 33.0448C165.65 36.5619 163.41 38.6497 159.543 38.6497C154.447 38.6497 151.926 35.0721 151.758 29.647H171.588V28.1563ZM151.646 25.5924C151.982 19.8691 154.222 17.4253 158.2 17.4253C162.177 17.4253 163.857 19.6903 163.97 25.5924H151.646Z" fill="white"/>
<path d="M131.873 11.6611L135.468 8.97188L139.058 11.6611L137.682 7.30494L141.263 4.62436H136.839L135.468 0.290649L134.092 4.62436H129.675L133.248 7.30494L131.873 11.6611Z" fill="white"/>
<path d="M181.362 55.646C181.362 55.646 180.691 55.4999 179.434 55.2286C178.807 55.0929 178.031 54.9477 177.121 54.7671C176.208 54.6038 175.157 54.4163 173.98 54.2296C171.63 53.8261 168.76 53.4562 165.47 53.108C162.18 52.7399 158.461 52.4288 154.399 52.2093C150.338 51.9699 145.939 51.8126 141.28 51.7331C138.951 51.7028 136.562 51.677 134.117 51.6847C131.671 51.6933 129.174 51.7228 126.633 51.7633C121.556 51.8696 116.307 52.0399 110.977 52.3173C105.647 52.5688 100.237 52.936 94.8274 53.3439C92.1235 53.5539 89.4204 53.7838 86.7286 54.0265C84.0368 54.2651 81.3553 54.5122 78.6981 54.7896C77.369 54.9322 76.046 55.0704 74.7282 55.2104C73.4112 55.3522 72.1029 55.4939 70.7998 55.6356C69.4966 55.7842 68.2021 55.9303 66.9163 56.078C65.6322 56.2275 64.3334 56.3788 63.0605 56.4963C57.9516 57.0035 53.0044 57.3509 48.3069 57.5333C45.9581 57.6266 43.6725 57.6897 41.4611 57.7001C39.2498 57.7233 37.111 57.7014 35.0569 57.6456C30.9514 57.5419 27.1846 57.2852 23.855 56.9128C20.5272 56.5066 17.6297 56.0495 15.2723 55.4498C14.0936 55.156 13.0471 54.8509 12.1467 54.5476C11.2462 54.2374 10.4944 53.9185 9.89558 53.6333C9.29673 53.349 8.85168 53.0907 8.55874 52.9049C8.26925 52.7139 8.11975 52.6128 8.11975 52.6128C8.11975 52.6128 8.28136 52.6793 8.59417 52.8037C8.90959 52.9204 9.37709 53.082 9.99581 53.2488C10.6154 53.4147 11.3854 53.5737 12.2936 53.7154C13.2018 53.8667 14.2509 53.9928 15.4296 54.087C16.6083 54.1743 17.914 54.246 19.3372 54.2944C20.7605 54.3384 22.3013 54.3471 23.9483 54.3169C27.2416 54.2867 30.9583 54.1328 35.0094 53.8891C37.035 53.7656 39.1461 53.6126 41.3289 53.4493C43.51 53.2721 45.768 53.0872 48.0857 52.872C52.7227 52.4391 57.6103 51.937 62.6543 51.3347C65.1897 51.0297 67.7649 50.7186 70.3729 50.4057C72.9938 50.1024 75.6468 49.806 78.3239 49.5572C80.9993 49.2875 83.7006 49.0534 86.4106 48.8244C89.1231 48.6023 91.8478 48.4208 94.5716 48.2428C100.023 47.8876 105.481 47.6837 110.853 47.5532C116.228 47.4478 121.519 47.4348 126.637 47.5619C129.197 47.6189 131.714 47.7096 134.175 47.8289C136.637 47.9516 139.047 48.0855 141.389 48.2652C146.076 48.6109 150.498 49.0698 154.573 49.6021C158.645 50.1534 162.367 50.7722 165.654 51.4073C168.934 52.0675 171.782 52.7364 174.112 53.3663C175.276 53.6722 176.309 53.9937 177.209 54.2581C178.106 54.5441 178.87 54.7775 179.483 54.9849C180.707 55.4144 181.362 55.646 181.362 55.646Z" fill="#FC4F48"/>
<path d="M172.954 47.2885C172.954 47.2885 172.288 47.1321 171.036 46.8435C170.412 46.7009 169.637 46.5471 168.731 46.3544C167.821 46.1841 166.774 45.9793 165.599 45.7797C163.255 45.3554 160.393 44.9562 157.108 44.5742C153.824 44.1836 150.109 43.8423 146.053 43.5917C141.999 43.3152 137.601 43.1207 132.949 43.0334C128.297 42.9427 123.389 42.9021 118.314 42.9963C113.238 43.0991 107.996 43.2468 102.668 43.5009C97.3417 43.7489 91.9365 44.1257 86.5312 44.5301C81.1303 44.951 75.7285 45.4383 70.4175 45.9827C69.0893 46.1245 67.768 46.2653 66.4519 46.4044C65.1358 46.5505 63.8275 46.6939 62.527 46.8374C59.9285 47.1312 57.3542 47.4561 54.8024 47.7153C49.7117 48.2529 44.7774 48.589 40.0955 48.818C35.4152 49.0738 30.9804 49.0945 26.8887 49.0608C22.7961 49.009 19.0431 48.7843 15.7213 48.4844C12.4021 48.1379 9.51156 47.7257 7.15762 47.1787C5.9798 46.9082 4.93504 46.6265 4.03374 46.3414C3.13503 46.0527 2.38149 45.7546 1.78177 45.4841C1.18033 45.2137 0.734424 44.9682 0.438892 44.7902C0.147675 44.6044 -0.00268555 44.5085 -0.00268555 44.5085C-0.00268555 44.5085 0.15718 44.5785 0.467405 44.7133C0.779361 44.8334 1.24341 45.0089 1.85781 45.1869C3.08922 45.5412 4.92468 45.8946 7.27689 46.1296C8.45384 46.2376 9.75871 46.3319 11.1811 46.3993C12.6043 46.4598 14.1443 46.4935 15.7905 46.4874C17.4358 46.496 19.1883 46.4779 21.035 46.4244C22.8816 46.3742 24.8234 46.2688 26.8489 46.1807C30.9009 45.9975 35.2856 45.6285 39.9244 45.2586C42.2411 45.059 44.6218 44.83 47.0518 44.5699C49.4827 44.3063 51.9671 44.0531 54.4887 43.7446C59.5189 43.1397 64.791 42.4717 70.1237 41.9576C75.4641 41.4201 80.8953 40.9586 86.3316 40.606C91.768 40.2319 97.2112 40.0219 102.572 39.8698C107.93 39.7289 113.206 39.6754 118.315 39.7834C123.419 39.8845 128.356 40.0547 133.03 40.3736C137.704 40.6933 142.119 41.1012 146.187 41.5851C150.252 42.0924 153.966 42.667 157.247 43.2676C160.526 43.8872 163.372 44.5172 165.7 45.116C166.866 45.4064 167.899 45.7114 168.799 45.9629C169.697 46.2351 170.461 46.4572 171.075 46.656C172.3 47.0664 172.954 47.2885 172.954 47.2885Z" fill="white"/>
</svg>
