<svg width="70" height="70" viewBox="0 0 70 70" fill="none" xmlns="http://www.w3.org/2000/svg">
<g id="Frame" clip-path="url(#clip0_97_4074)">
<path id="Vector" d="M61.3109 16.4582L58.4204 18.1271" stroke="#232656" stroke-width="4" stroke-linecap="round" stroke-linejoin="round"/>
<path id="Vector_2" d="M20.2788 5.46326L21.9476 8.35375" stroke="#232656" stroke-width="4" stroke-linecap="round" stroke-linejoin="round"/>
<path id="Vector_3" d="M52.7601 48.3735L51.0913 45.483" stroke="#232656" stroke-width="4" stroke-linecap="round" stroke-linejoin="round"/>
<path id="Vector_4" d="M11.7241 37.3785L14.6146 35.7097" stroke="#232656" stroke-width="4" stroke-linecap="round" stroke-linejoin="round"/>
<path id="Vector_5" d="M24.1816 45.6028L37.8596 49.2678" stroke="#232656" stroke-width="4" stroke-linecap="round" stroke-linejoin="round"/>
<path id="Vector_6" d="M24.6274 53.0526L33.7461 55.4959" stroke="#232656" stroke-width="4" stroke-linecap="round" stroke-linejoin="round"/>
<path id="Vector_7" d="M40.1827 13.2403C31.0638 10.7969 25.2041 13.992 23.4506 20.9736C22.5957 24.3775 23.063 26.9781 24.7322 29.8687C26.4014 32.7593 27.2358 34.2045 26.0138 38.7638L39.6916 42.4287C40.9137 37.8697 42.359 37.0351 45.2488 35.3663C48.139 33.6974 49.8451 31.679 50.8064 28.3036C52.7787 21.3806 49.3017 15.6838 40.1827 13.2403Z" stroke="#232656" stroke-width="4" stroke-linecap="round" stroke-linejoin="round"/>
</g>
<defs>
<clipPath id="clip0_97_4074">
<rect width="56.6419" height="56.6419" fill="white" transform="translate(14.6602) rotate(15)"/>
</clipPath>
</defs>
</svg>
