<svg width="1188" height="533" viewBox="0 0 1188 533" fill="none" xmlns="http://www.w3.org/2000/svg">
<g opacity="0.07">
<path d="M95.1241 255.558L154.658 85.7192L210.632 255.558H213.328L265.312 83.8001C277.284 44.4588 288.5 23.3488 303.788 19.1908V17.2717H248.056V19.1908C270.381 23.3488 270.705 43.1794 259.057 81.881L231.879 172.718L192.19 49.5764C186.366 31.345 192.19 20.4702 211.279 19.1908V17.2717H117.126V19.1908C129.744 20.4702 137.186 32.3046 145.598 58.2123L151.422 76.4436L116.155 178.155L76.0346 49.5764C70.6421 31.6649 76.3581 20.4702 93.8299 19.1908V17.2717H0V19.1908C13.4813 20.4702 21.3544 32.3046 29.4432 58.2123L92.5357 255.452L95.1241 255.558Z" fill="#FFFCF7"/>
<path d="M339.082 57.5727C344.156 57.541 349.106 56.0269 353.311 53.2207C357.517 50.4146 360.788 46.4417 362.715 41.802C364.642 37.1622 365.138 32.0628 364.14 27.1452C363.142 22.2276 360.696 17.7115 357.108 14.165C353.521 10.6185 348.952 8.20004 343.978 7.2138C339.003 6.22757 333.845 6.71764 329.151 8.62236C324.458 10.5271 320.439 13.7614 317.6 17.9184C314.762 22.0754 313.23 26.9694 313.198 31.9848C313.173 35.352 313.825 38.6905 315.117 41.8062C316.409 44.9218 318.315 47.7525 320.723 50.1335C323.132 52.5145 325.995 54.3984 329.147 55.6755C332.299 56.9526 335.676 57.5975 339.082 57.5727Z" fill="#FFFCF7"/>
<path d="M363.672 79.3223H362.378L301.981 93.289V95.2081C312.982 99.0463 318.482 104.804 318.482 125.274V216.857C318.482 237.327 317.512 248.202 304.246 248.202V250.121H378.016V248.202C364.75 248.202 363.78 237.327 363.78 216.857L363.672 79.3223Z" fill="#FFFCF7"/>
<path d="M410.263 208.861C410.263 240.845 425.794 253.959 452.001 253.959C472.061 253.959 493.739 241.165 509.27 221.655L507.329 220.375C498.916 227.092 487.915 233.169 478.209 233.169C463.649 233.169 455.56 224.853 455.56 208.221V96.9139H529.654V216.857C529.654 237.327 528.683 248.202 515.417 248.202V250.121H589.187V248.202C575.922 248.202 574.951 237.327 574.951 216.857V112.586C584.173 106.81 594.756 103.503 605.661 102.991C626.692 102.991 630.602 118.024 630.602 140.093V216.857C630.602 237.327 629.604 248.202 616.338 248.202V250.121H690.243V248.202C676.977 248.202 676.007 237.327 676.007 216.857V128.579C676.007 96.5941 661.77 78.6826 633.945 78.6826C611.971 78.6826 591.263 93.3956 575.086 109.388V0H573.791L513.153 11.5145V13.327C524.153 17.1652 529.654 22.9224 529.654 43.3927V82.6274H455.668V34.8634H453.727C437.873 66.2085 421.048 79.6421 398.076 90.1971L393.546 92.4361V96.9139H410.371L410.263 208.861Z" fill="#FFFCF7"/>
<path d="M507.787 447.947C499.375 431.955 490.962 420.12 481.579 414.683V414.043C511.993 406.367 533.671 386.216 533.671 355.404C533.671 318.302 506.169 295.62 451.489 295.62H353.21V297.539C375.212 297.539 376.506 313.531 376.506 337.173V486.969C376.506 510.637 375.212 526.63 353.21 526.63V528.549H448.334V526.63C426.333 526.63 424.392 510.637 424.392 486.969V417.668H432.157C442.511 417.668 446.07 420.547 451.246 431.422C490.72 522.045 496.544 530.041 523.075 530.041C534.399 530.041 554.459 529.402 560.823 528.762V526.843C547.584 522.418 541.76 511.597 507.787 447.947ZM443.077 412.444H424.203V312.332C424.203 304.682 428.733 300.844 436.498 300.844H443.292C471.765 300.844 484.707 324.832 484.707 359.029C484.815 394.213 469.932 412.444 443.077 412.444Z" fill="#FFFCF7"/>
<path d="M696.741 512.236C686.711 512.236 686.711 502.321 686.711 489.207V413.403C686.711 378.54 667.298 357.11 633.002 357.11C617.352 356.958 602.075 361.835 589.471 371.007C576.867 380.179 567.618 393.149 563.114 407.966L565.056 408.926C574.115 391.654 590.293 377.261 610.892 377.261C642.277 377.261 642.277 410.525 642.277 419.481V439.311L612.833 447.307C574.654 457.969 556.859 474.175 556.859 497.95C556.859 518.74 572.39 532.6 595.038 532.6C613.912 532.6 632.786 521.405 644.218 505.946C645.189 517.461 650.042 532.6 671.396 532.6C692.751 532.6 706.448 516.608 711.517 506.692L709.575 505.413C708.07 507.408 706.141 509.053 703.924 510.232C701.707 511.411 699.255 512.095 696.741 512.236ZM642.385 503.281C636.237 508.612 627.825 512.876 620.814 512.876C608.843 512.876 599.46 502.641 599.46 485.369C599.46 466.498 605.608 457.223 629.119 448.587L642.385 443.789V503.281Z" fill="#FFFCF7"/>
<path d="M875.342 495.285V407.006C875.342 375.022 861.105 357.11 833.28 357.11C811.278 357.11 790.571 371.823 774.394 387.816V357.75H773.099L712.595 371.823V373.742C723.596 377.58 729.096 383.338 729.096 403.808V495.285C729.096 515.755 728.126 526.63 714.86 526.63V528.549H788.63V526.63C775.364 526.63 774.394 515.755 774.394 495.285V391.014C783.624 385.234 794.217 381.927 805.131 381.419C826.162 381.419 830.044 396.452 830.044 418.521V495.285C830.044 515.755 829.074 526.63 815.808 526.63V528.549H889.578V526.63C876.285 526.63 875.342 515.755 875.342 495.285Z" fill="#FFFCF7"/>
<path d="M998.615 413.137C1027.73 385.63 1054.59 364.84 1066.02 362.921V361.002H1001.31V362.921C1003.05 362.945 1004.77 363.31 1006.36 363.995C1007.95 364.68 1009.4 365.671 1010.6 366.911C1011.8 368.15 1012.75 369.614 1013.37 371.217C1014 372.82 1014.3 374.53 1014.25 376.248C1014.25 386.909 1007.13 397.571 993.546 410.898L964.426 439.045C1002.93 514.209 1010.05 529.881 1038.52 529.881C1049.17 530.005 1059.82 529.56 1070.42 528.549V526.63C1062.33 524.071 1041.32 491.446 998.615 413.137Z" fill="#FFFCF7"/>
<path d="M957.524 495.285V281.253C958.242 275.976 959.479 270.78 961.218 265.74C953.673 270.457 945.703 274.472 937.41 277.735C929.317 280.933 921.022 283.604 912.577 285.731C895.979 289.918 878.958 292.243 861.833 292.661C853.313 292.803 844.838 292.581 836.408 291.995C827.941 291.222 819.529 290.475 811.144 288.983C802.758 287.49 794.454 285.944 786.176 283.972L760.346 277.415C742.256 272.953 723.822 269.984 705.234 268.539C700.543 268.166 695.771 268.006 691.052 267.873C686.334 267.739 681.534 267.873 676.735 268.139C667.076 268.608 657.473 269.856 648.02 271.871C638.415 273.883 629.065 276.941 620.14 280.986C611.205 285.117 602.871 290.415 595.362 296.739C588.12 302.928 581.705 310.004 576.272 317.796C571.059 325.32 566.495 333.264 562.629 341.544C569.774 335.84 576.704 330.056 583.741 324.832C590.502 319.745 597.723 315.284 605.311 311.505C620.008 304.432 635.965 300.275 652.28 299.271C685.012 296.899 719.093 302.496 753.039 309.373L765.819 312.038C770.295 312.971 774.96 314.011 779.543 314.864C788.822 316.547 798.181 317.766 807.584 318.515C826.473 320.135 845.491 319.436 864.206 316.436C879.768 313.898 894.954 309.475 909.422 303.269C911.606 309.242 912.568 315.584 912.253 321.927V495.178C912.253 515.648 911.283 526.523 898.017 526.523V528.442H971.787V526.523C958.494 526.63 957.524 515.755 957.524 495.285Z" fill="#FFFCF7"/>
<path d="M1142.92 424.278L1130.3 417.561C1117.36 410.845 1102.47 403.168 1102.47 385.897C1102.47 371.823 1112.5 361.588 1129.44 361.588C1151.44 361.588 1167.19 380.779 1177.97 403.808H1179.91V365.16C1165.02 360.055 1149.4 357.355 1133.64 357.164C1100.32 357.164 1073.79 376.035 1073.79 408.979C1073.79 439.364 1096.11 451.199 1110.02 458.555L1122.64 465.272C1145.29 477.107 1159.2 483.93 1159.2 501.095C1159.2 519.326 1144.32 527.962 1127.17 527.962C1099.99 527.962 1085.43 503.974 1071.85 477.32H1069.9L1072.82 523.698C1085.11 529.029 1105.17 532.334 1121.02 532.334C1160.82 532.334 1188 511.224 1188 477.32C1187.89 446.348 1164.92 435.793 1142.92 424.278Z" fill="#FFFCF7"/>
<path d="M106.422 477.506C97.9283 477.506 93.2098 472.655 93.2098 462.953V398.024H119.822L123.031 389.628H93.2098V361.828H92.0774C82.8292 380.113 73.0148 387.949 59.7223 394.106L57.026 395.412V398.077H66.8404V463.38C66.8404 482.038 75.8998 489.687 91.1068 489.687C102.809 489.687 115.373 482.224 124.513 470.843L123.381 470.096C118.636 473.961 112.084 477.506 106.422 477.506Z" fill="#FFFCF7"/>
<path d="M132.494 461.274V462.393H175.634V461.274C167.896 461.274 167.33 454.93 167.33 442.989V382.165C172.714 378.793 178.893 376.864 185.26 376.568C197.555 376.568 199.82 385.337 199.82 398.211V442.989C199.82 454.93 199.254 461.274 191.515 461.274V462.393H234.575V461.274C226.836 461.274 226.27 454.93 226.27 442.989V391.494C226.27 372.836 217.966 362.388 201.734 362.388C188.873 362.388 176.794 370.97 167.357 380.299V316.49H166.602L131.308 323.206V324.326C137.725 326.565 140.933 329.923 140.933 341.864V442.989C140.799 454.93 140.205 461.274 132.494 461.274Z" fill="#FFFCF7"/>
<path d="M298.881 419.401C278.497 419.401 270.004 400.37 270.004 371.423V369.558H326.625C327.757 345.569 313.791 330.376 290.765 330.376C262.831 330.376 243.203 353.512 243.203 383.178C243.203 409.832 257.924 432.621 286.343 432.621C307.482 432.621 319.183 419.747 326.787 406.5L325.654 405.754C322.646 410.004 318.636 413.468 313.972 415.845C309.308 418.223 304.128 419.443 298.881 419.401ZM290.01 333.015C301.9 333.015 304.731 346.076 303.222 366.599H270.192C270.947 349.434 276.798 333.015 290.01 333.015Z" fill="#FFFCF7"/>
<path d="M315.031 529.642V473.855L167.68 533L315.031 529.642Z" fill="#FFFCF7"/>
</g>
</svg>
