<svg width="277" height="28" viewBox="0 0 277 28" fill="none" xmlns="http://www.w3.org/2000/svg">
<path d="M39.7272 1.18105H45.5157V27.1117H39.7272V1.18105ZM71.8882 1.18105H77.6767V27.1117H71.8882L59.5333 10.8632V27.1117H53.7459V1.18105H59.1643L71.8893 17.8759L71.8882 1.18105ZM105.723 4.57355C108.194 6.83408 109.433 9.98288 109.433 14.0154C109.433 18.0468 108.229 21.2377 105.817 23.5848C103.406 25.9364 99.7252 27.1082 94.7793 27.1082H85.9137V1.17763H95.0754C99.699 1.18105 103.249 2.31188 105.723 4.57355ZM101.474 19.9873C102.897 18.6503 103.608 16.7109 103.608 14.1612C103.608 11.6159 102.897 9.65376 101.474 8.28378C100.051 6.90924 97.8689 6.22368 94.9262 6.22368H91.6977V21.9904H95.3715C98.0181 21.9939 100.052 21.3254 101.474 19.9873ZM115.551 1.18105H121.34V27.1117H115.551V1.18105ZM138.405 17.688L145.01 1.18105H151.277L140.853 27.1117H135.956L125.533 1.18105H131.804L138.405 17.688ZM155.47 1.18105H161.258V27.1117H155.47V1.18105ZM174.816 6.35464C174.258 6.81244 173.981 7.41829 173.981 8.17446C173.981 8.92721 174.322 9.52963 175.003 9.97605C175.684 10.4202 177.253 10.9452 179.713 11.5522C182.172 12.158 184.082 13.0679 185.444 14.2773C186.804 15.4901 187.485 17.2576 187.485 19.583C187.485 21.9073 186.613 23.7943 184.868 25.2395C183.123 26.6857 180.832 27.4112 177.986 27.4112C173.88 27.4112 170.184 25.892 166.893 22.848L170.345 18.6173C173.138 21.0657 175.726 22.29 178.099 22.29C179.163 22.29 179.997 22.0622 180.604 21.6044C181.21 21.1477 181.513 20.5305 181.513 19.7516C181.513 18.9726 181.192 18.3542 180.547 17.8976C179.904 17.4421 178.631 16.9774 176.724 16.5048C173.707 15.7897 171.502 14.8536 170.102 13.7045C168.705 12.5543 168.005 10.7504 168.005 8.2872C168.005 5.82738 168.888 3.92899 170.656 2.59317C172.423 1.25621 174.632 0.588867 177.279 0.588867C179.009 0.588867 180.742 0.884957 182.472 1.48055C184.202 2.07615 185.711 2.91545 186.999 4.00415L184.067 8.23481C181.817 6.5266 179.492 5.67364 177.092 5.67364C176.13 5.67022 175.369 5.89798 174.815 6.35464H174.816ZM193.529 1.18105H199.316V27.1117H193.529V1.18105ZM218.905 27.1117H207.553V1.18105H217.643C219.399 1.18105 220.911 1.39059 222.189 1.80967C223.461 2.22875 224.421 2.79815 225.064 3.51788C226.225 4.8537 226.809 6.36261 226.809 8.04349C226.809 10.0728 226.153 11.5818 224.843 12.5702C224.397 12.9187 224.091 13.1317 223.914 13.2182C223.742 13.3036 223.431 13.446 222.986 13.6453C224.592 13.9926 225.873 14.7158 226.827 15.8158C227.778 16.9171 228.254 18.2836 228.254 19.9155C228.254 21.7206 227.636 23.316 226.4 24.7008C224.963 26.3065 222.466 27.1117 218.905 27.1117ZM213.338 11.6797H216.083C217.688 11.6797 218.883 11.5066 219.661 11.1593C220.44 10.8142 220.829 10.066 220.829 8.9124C220.829 7.75879 220.47 7.00262 219.755 6.63251C219.036 6.26126 217.827 6.0745 216.119 6.0745H213.338V11.6797ZM213.338 22.2148H217.307C218.962 22.2148 220.204 22.0121 221.035 21.6044C221.863 21.1967 222.279 20.3916 222.279 19.1935C222.279 17.9955 221.84 17.2006 220.96 16.8191C220.081 16.4376 218.68 16.2429 216.749 16.2429H213.334V22.2148H213.338ZM234.966 27.1117V1.18105H240.755V21.9563H251.812V27.1117H234.966ZM276.59 1.18105V6.33642H263.68V11.6797H275.29V16.6141H263.68V21.9939H276.997V27.1117H257.892V1.18105H276.59Z" fill="white"/>
<path d="M14.222 27.2313H7.92444V20.0819C7.92444 17.3601 10.1531 15.1281 12.8782 15.1281H14.2266V27.2336H14.222V27.2313Z" fill="#CA4948"/>
<path d="M14.2216 27.2313H20.5192V20.0819C20.5192 17.3601 18.2916 15.1281 15.5653 15.1281H14.2181V27.2336H14.2216V27.2313Z" fill="#6C9FC2"/>
<path d="M14.2116 12.9301C12.6392 12.9301 11.1312 12.3055 10.0194 11.1937C8.90758 10.0818 8.28296 8.57387 8.28296 7.0015C8.28296 5.42913 8.90758 3.92116 10.0194 2.80933C11.1312 1.6975 12.6392 1.07288 14.2116 1.07288V12.9301Z" fill="#CA4948"/>
<path d="M28.4421 27.2313H22.1445V20.0818C22.1445 17.3601 24.3732 15.128 27.0983 15.128H28.4467V27.2335H28.4421V27.2313ZM28.4387 12.9301C26.8663 12.9301 25.3584 12.3055 24.2465 11.1937C23.1347 10.0818 22.5101 8.57387 22.5101 7.0015C22.5101 5.42913 23.1347 3.92116 24.2465 2.80933C25.3584 1.6975 26.8663 1.07288 28.4387 1.07288V12.9301Z" fill="white"/>
<path d="M14.2206 12.9301C15.793 12.9301 17.3009 12.3055 18.4128 11.1937C19.5246 10.0818 20.1492 8.57387 20.1492 7.0015C20.1492 5.42913 19.5246 3.92116 18.4128 2.80933C17.3009 1.6975 15.793 1.07288 14.2206 1.07288V12.9301ZM0.0014633 27.2313H6.29906V20.0818C6.29906 17.3601 4.07042 15.128 1.34525 15.128H-0.00195312V27.2335H0.0014633V27.2313ZM0.0014633 12.9301C1.57383 12.9301 3.0818 12.3055 4.19363 11.1937C5.30547 10.0818 5.93009 8.57387 5.93009 7.0015C5.93009 5.42913 5.30547 3.92116 4.19363 2.80933C3.0818 1.6975 1.57383 1.07288 0.0014633 1.07288V12.9301Z" fill="#6C9FC2"/>
</svg>
