<svg width="156" height="70" viewBox="0 0 156 70" fill="none" xmlns="http://www.w3.org/2000/svg">
<path d="M12.491 33.563L20.3086 11.2577L27.6587 33.563H28.0128L34.839 11.0056C36.411 5.83887 37.8838 3.06645 39.8913 2.52037V2.26833H32.573V2.52037C35.5046 3.06645 35.5471 5.67084 34.0176 10.7536L30.4487 22.6834L25.237 6.51097C24.4723 4.11661 25.237 2.6884 27.7437 2.52037V2.26833H15.3801V2.52037C17.0371 2.6884 18.0143 4.24263 19.1189 7.64514L19.8837 10.0395L15.2527 23.3975L9.98434 6.51097C9.27623 4.15862 10.0268 2.6884 12.3211 2.52037V2.26833H0V2.52037C1.77027 2.6884 2.80411 4.24263 3.86628 7.64514L12.1512 33.549L12.491 33.563Z" fill="#FFFCF7"/>
<path d="M44.5259 7.56114C45.1921 7.55698 45.8422 7.35813 46.3944 6.98959C46.9466 6.62105 47.3762 6.09929 47.6292 5.48994C47.8823 4.88059 47.9474 4.21087 47.8164 3.56503C47.6853 2.9192 47.3641 2.32609 46.893 1.86032C46.4219 1.39455 45.822 1.07693 45.1688 0.947404C44.5156 0.81788 43.8382 0.882241 43.2219 1.13239C42.6056 1.38254 42.0778 1.80731 41.7051 2.35326C41.3323 2.89921 41.1312 3.54195 41.127 4.20064C41.1237 4.64285 41.2094 5.0813 41.379 5.49049C41.5487 5.89968 41.7989 6.27143 42.1152 6.58414C42.4314 6.89684 42.8075 7.14425 43.2213 7.31198C43.6352 7.4797 44.0787 7.5644 44.5259 7.56114Z" fill="#FFFCF7"/>
<path d="M47.7549 10.4176H47.5849L39.6541 12.2518V12.5039C41.0987 13.008 41.8209 13.7641 41.8209 16.4525V28.4803C41.8209 31.1687 41.6935 32.5969 39.9515 32.5969V32.8489H49.6385V32.5969C47.8965 32.5969 47.7691 31.1687 47.7691 28.4803L47.7549 10.4176Z" fill="#FFFCF7"/>
<path d="M53.8729 27.4301C53.8729 31.6307 55.9123 33.353 59.3537 33.353C61.9879 33.353 64.8345 31.6727 66.8738 29.1104L66.6189 28.9423C65.5143 29.8245 64.0697 30.6226 62.7951 30.6226C60.8832 30.6226 59.8211 29.5304 59.8211 27.3461V12.7279H69.5505V28.4803C69.5505 31.1687 69.423 32.5969 67.6811 32.5969V32.8489H77.368V32.5969C75.6261 32.5969 75.4986 31.1687 75.4986 28.4803V14.7862C76.7096 14.0276 78.0993 13.5933 79.5313 13.526C82.2929 13.526 82.8063 15.5003 82.8063 18.3988V28.4803C82.8063 31.1687 82.6753 32.5969 80.9333 32.5969V32.8489H90.638V32.5969C88.896 32.5969 88.7686 31.1687 88.7686 28.4803V16.8865C88.7686 12.6859 86.8992 10.3335 83.2453 10.3335C80.3598 10.3335 77.6406 12.2658 75.5163 14.3662V0H75.3464L67.3837 1.51223V1.75026C68.8282 2.25434 69.5505 3.01045 69.5505 5.69885V10.8516H59.8352V4.57869H59.5803C57.4985 8.6953 55.2892 10.4596 52.2726 11.8458L51.6778 12.1398V12.7279H53.8871L53.8729 27.4301Z" fill="#FFFCF7"/>
<path d="M66.6791 58.8298C65.5745 56.7295 64.4698 55.1753 63.2377 54.4612V54.3772C67.2314 53.369 70.078 50.7226 70.078 46.676C70.078 41.8033 66.4667 38.8243 59.2864 38.8243H46.3812V39.0764C49.2702 39.0764 49.4402 41.1767 49.4402 44.2816V63.9546C49.4402 67.0631 49.2702 69.1634 46.3812 69.1634V69.4154H58.8722V69.1634C55.9831 69.1634 55.7282 67.0631 55.7282 63.9546V54.8532H56.7479C58.1074 54.8532 58.5748 55.2313 59.2546 56.6595C64.4379 68.5613 65.2027 69.6114 68.6866 69.6114C70.1736 69.6114 72.8078 69.5274 73.6434 69.4434V69.1914C71.905 68.6103 71.1402 67.1891 66.6791 58.8298ZM58.1818 54.1671H55.7034V41.0192C55.7034 40.0145 56.2982 39.5104 57.3179 39.5104H58.2101C61.9489 39.5104 63.6484 42.6609 63.6484 47.1521C63.6626 51.7728 61.7082 54.1671 58.1818 54.1671Z" fill="#FFFCF7"/>
<path d="M91.4913 67.2731C90.1742 67.2731 90.1742 65.9709 90.1742 64.2486V54.2931C90.1742 49.7145 87.625 46.9 83.1214 46.9C81.0664 46.8801 79.0604 47.5206 77.4053 48.7251C75.7503 49.9296 74.5357 51.6331 73.9443 53.579L74.1992 53.705C75.3889 51.4367 77.5132 49.5464 80.2182 49.5464C84.3394 49.5464 84.3394 53.9151 84.3394 55.0913V57.6956L80.4731 58.7458C75.4597 60.146 73.1229 62.2743 73.1229 65.3968C73.1229 68.1272 75.1623 69.9475 78.1363 69.9475C80.6147 69.9475 83.0931 68.4773 84.5943 66.447C84.7217 67.9592 85.359 69.9475 88.1632 69.9475C90.9673 69.9475 92.7659 67.8472 93.4315 66.545L93.1766 66.3769C92.979 66.639 92.7256 66.855 92.4345 67.0098C92.1433 67.1647 91.8214 67.2545 91.4913 67.2731ZM84.3535 66.0969C83.5463 66.797 82.4416 67.3571 81.5211 67.3571C79.9491 67.3571 78.717 66.0129 78.717 63.7446C78.717 61.2662 79.5242 60.048 82.6116 58.9138L84.3535 58.2837V66.0969Z" fill="#FFFCF7"/>
<path d="M114.944 65.0467V53.453C114.944 49.2524 113.074 46.9 109.421 46.9C106.532 46.9 103.812 48.8323 101.688 50.9326V46.984H101.518L93.5731 48.8323V49.0844C95.0177 49.5884 95.7399 50.3445 95.7399 53.0329V65.0467C95.7399 67.7351 95.6125 69.1634 93.8705 69.1634V69.4154H103.557V69.1634C101.815 69.1634 101.688 67.7351 101.688 65.0467V51.3527C102.9 50.5936 104.291 50.1593 105.724 50.0925C108.486 50.0925 108.996 52.0668 108.996 54.9652V65.0467C108.996 67.7351 108.868 69.1634 107.126 69.1634V69.4154H116.813V69.1634C115.068 69.1634 114.944 67.7351 114.944 65.0467Z" fill="#FFFCF7"/>
<path d="M131.131 54.2581C134.955 50.6456 138.481 47.9152 139.983 47.6631V47.4111H131.485V47.6631C131.714 47.6663 131.939 47.7143 132.148 47.8042C132.358 47.8942 132.547 48.0243 132.705 48.1871C132.863 48.3499 132.987 48.5422 133.069 48.7527C133.152 48.9632 133.191 49.1878 133.185 49.4134C133.185 50.8136 132.25 52.2138 130.466 53.9641L126.642 57.6606C131.698 67.5321 132.632 69.5904 136.371 69.5904C137.77 69.6066 139.168 69.5482 140.56 69.4154V69.1634C139.498 68.8273 136.739 64.5427 131.131 54.2581Z" fill="#FFFCF7"/>
<path d="M125.735 65.0468V36.9375C125.83 36.2445 125.992 35.5621 126.22 34.9002C125.23 35.5196 124.183 36.047 123.094 36.4755C122.032 36.8955 120.942 37.2463 119.833 37.5256C117.654 38.0756 115.419 38.3809 113.17 38.4358C112.051 38.4544 110.938 38.4253 109.831 38.3483C108.72 38.2467 107.615 38.1487 106.514 37.9527C105.413 37.7567 104.322 37.5536 103.235 37.2946L99.8434 36.4335C97.4679 35.8474 95.0473 35.4575 92.6066 35.2678C91.9905 35.2188 91.3638 35.1978 90.7442 35.1803C90.1246 35.1628 89.4944 35.1803 88.8642 35.2153C87.5959 35.2769 86.3348 35.4408 85.0935 35.7054C83.8323 35.9697 82.6045 36.3712 81.4326 36.9025C80.2592 37.445 79.1649 38.1409 78.1788 38.9713C77.2279 39.7842 76.3856 40.7135 75.6721 41.7368C74.9875 42.7249 74.3882 43.7682 73.8806 44.8557C74.8188 44.1066 75.7288 43.347 76.6528 42.6609C77.5407 41.9928 78.4888 41.4069 79.4853 40.9106C81.4152 39.9817 83.5106 39.4358 85.6529 39.3039C89.9511 38.9923 94.4264 39.7275 98.8839 40.6306L100.562 40.9806C101.15 41.1032 101.762 41.2397 102.364 41.3517C103.583 41.5728 104.812 41.7329 106.046 41.8313C108.527 42.044 111.024 41.9522 113.482 41.5582C115.525 41.2248 117.519 40.6441 119.419 39.829C119.706 40.6134 119.832 41.4463 119.791 42.2793V65.0327C119.791 67.7211 119.663 69.1494 117.921 69.1494V69.4014H127.608V69.1494C125.863 69.1634 125.735 67.7352 125.735 65.0468Z" fill="#FFFCF7"/>
<path d="M150.08 55.7213L148.423 54.8392C146.724 53.9571 144.769 52.9489 144.769 50.6806C144.769 48.8323 146.086 47.4881 148.31 47.4881C151.199 47.4881 153.267 50.0085 154.683 53.0329H154.938V47.9572C152.983 47.2868 150.931 46.9322 148.862 46.907C144.486 46.907 141.002 49.3854 141.002 53.712C141.002 57.7026 143.934 59.2569 145.761 60.223L147.418 61.1052C150.392 62.6594 152.219 63.5555 152.219 65.8099C152.219 68.2042 150.264 69.3384 148.013 69.3384C144.444 69.3384 142.532 66.1879 140.747 62.6874H140.492L140.875 68.7783C142.489 69.4784 145.123 69.9125 147.205 69.9125C152.431 69.9125 156 67.1401 156 62.6874C155.986 58.6198 152.969 57.2336 150.08 55.7213Z" fill="#FFFCF7"/>
<path d="M13.9745 62.7119C12.8593 62.7119 12.2397 62.0748 12.2397 60.8006V52.2733H15.7342L16.1555 51.1707H12.2397V47.5196H12.091C10.8766 49.921 9.58781 50.9501 7.84232 51.7588L7.48826 51.9303V52.2803H8.77702V60.8566C8.77702 63.307 9.96665 64.3116 11.9635 64.3116C13.5001 64.3116 15.15 63.3315 16.3503 61.8368L16.2015 61.7387C15.5784 62.2463 14.7181 62.7119 13.9745 62.7119Z" fill="#FFFCF7"/>
<path d="M17.3982 60.5801V60.7271H23.0631V60.5801C22.047 60.5801 21.9726 59.7469 21.9726 58.1787V50.1905C22.6796 49.7476 23.491 49.4943 24.3271 49.4554C25.9416 49.4554 26.239 50.6071 26.239 52.2978V58.1787C26.239 59.7469 26.1646 60.5801 25.1485 60.5801V60.7271H30.8027V60.5801C29.7866 60.5801 29.7122 59.7469 29.7122 58.1787V51.4157C29.7122 48.9653 28.6218 47.5931 26.4903 47.5931C24.8015 47.5931 23.2153 48.7203 21.9762 49.9455V41.5652H21.877L17.2424 42.4474V42.5944C18.0851 42.8884 18.5064 43.3295 18.5064 44.8977V58.1787C18.4887 59.7469 18.4108 60.5801 17.3982 60.5801Z" fill="#FFFCF7"/>
<path d="M39.2469 55.0808C36.5703 55.0808 35.455 52.5814 35.455 48.7798V48.5348H42.8902C43.0389 45.3843 41.2049 43.389 38.1812 43.389C34.5132 43.389 31.9357 46.4275 31.9357 50.3235C31.9357 53.8241 33.8689 56.817 37.6006 56.817C40.3764 56.817 41.913 55.1263 42.9114 53.3865L42.7627 53.2885C42.3676 53.8467 41.8411 54.3016 41.2286 54.6138C40.6162 54.9261 39.936 55.0863 39.2469 55.0808ZM38.0821 43.7356C39.6435 43.7356 40.0152 45.4508 39.817 48.1462H35.4798C35.5789 45.8919 36.3472 43.7356 38.0821 43.7356Z" fill="#FFFCF7"/>
<path d="M41.3677 69.5589V62.2323L22.0186 70L41.3677 69.5589Z" fill="#FFFCF7"/>
</svg>
