<svg style="display: none;" xmlns="http://www.w3.org/2000/svg">
  <symbol id="icon" viewBox="0 0 27 22">
    <path d="M24.0264 11C24.0264 17.3513 20.6015 22 14.5264 22C8.45123 22 0.526367 20.3513 0.526367 14C0.526367 7.64873 6.45123 3 12.5264 3C18.6015 3 24.0264 4.64873 24.0264 11Z" fill="#646ADD" fill-opacity="0.4"/>
    <path d="M17.7764 0C13.193 0 9.52637 3.66667 9.52637 8.25C9.52637 9.9 10.0764 11.55 10.993 12.925L9.7097 15.125C9.52637 15.4 9.52637 15.7667 9.7097 16.0417C9.89303 16.3167 10.0764 16.5 10.443 16.5H17.7764C22.3597 16.5 26.0264 12.8333 26.0264 8.25C26.0264 3.66667 22.3597 0 17.7764 0ZM17.7764 14.6667H12.093L12.918 13.2917C13.1014 12.925 13.1014 12.5583 12.8264 12.2833C11.9097 11.1833 11.3597 9.71667 11.3597 8.25C11.3597 4.675 14.2014 1.83333 17.7764 1.83333C21.3514 1.83333 24.193 4.675 24.193 8.25C24.193 11.825 21.3514 14.6667 17.7764 14.6667Z" fill="var(--icon-stroke-color)"/>
    <path d="M17.8646 3.94171H17.7729C16.8563 3.94171 16.0313 4.40004 15.5729 5.13338C15.2063 5.59171 15.2979 6.14171 15.7563 6.41671C16.2146 6.69171 16.7646 6.60004 17.0396 6.14171C17.2229 5.86671 17.4979 5.77504 17.7729 5.77504H17.8646C18.3229 5.77504 18.6896 6.14171 18.6896 6.60004C18.6896 6.96671 18.4146 7.33338 18.1396 7.42504L17.4979 7.60838C17.1313 7.70004 16.8563 8.06671 16.8563 8.43338V9.16671C16.8563 9.71671 17.2229 10.0834 17.7729 10.0834C18.2313 10.0834 18.6896 9.71671 18.6896 9.25838C19.7896 8.89171 20.5229 7.88338 20.5229 6.69171C20.5229 5.22504 19.3313 3.94171 17.8646 3.94171Z" fill="var(--icon-stroke-color)"/>
    <path d="M17.778 12.8334C18.2843 12.8334 18.6947 12.423 18.6947 11.9167C18.6947 11.4104 18.2843 11 17.778 11C17.2717 11 16.8613 11.4104 16.8613 11.9167C16.8613 12.423 17.2717 12.8334 17.778 12.8334Z" fill="var(--icon-stroke-color)"/>
  </symbol>
</svg>
