<svg style="display: none;" xmlns="http://www.w3.org/2000/svg">
  <symbol id="icon" viewBox="0 0 27 22">
    <path d="M24.5 15.0001C24.5 20.7991 19.299 22.0001 13.5 22.0001C7.70101 22.0001 0 18.2991 0 12.5001C0 6.70109 7.70101 1.00008 13.5 1.00008C19.299 1.00008 24.5 9.20109 24.5 15.0001Z" fill="#646ADD66"/>
    <path d="M16.7481 9.63334C18.451 9.63334 19.8315 8.25288 19.8315 6.55C19.8315 4.84713 18.451 3.46667 16.7481 3.46667C15.0453 3.46667 13.6648 4.84713 13.6648 6.55C13.6648 8.25288 15.0453 9.63334 16.7481 9.63334Z" stroke="var(--icon-stroke-color)" stroke-width="1.5" stroke-linecap="round" stroke-linejoin="round"/>
    <path d="M21.064 15.8C21.064 14.6551 20.6092 13.5571 19.7997 12.7476C18.9901 11.9381 17.8922 11.4833 16.7473 11.4833C15.6025 11.4833 14.5045 11.9381 13.695 12.7476C12.8855 13.5571 12.4307 14.6551 12.4307 15.8H21.064Z" stroke="var(--icon-stroke-color)" stroke-width="1.5" stroke-linecap="round" stroke-linejoin="round"/>
    <path d="M21.6849 7.16667C22.2105 7.16667 22.7274 7.03232 23.1864 6.77638C23.6455 6.52045 24.0315 6.15142 24.3078 5.70434C24.5841 5.25726 24.7415 4.74697 24.7651 4.22192C24.7888 3.69688 24.6778 3.17451 24.4427 2.70443C24.2077 2.23434 23.8564 1.83213 23.4222 1.53601C22.988 1.23988 22.4853 1.05966 21.9618 1.01246C21.4384 0.96526 20.9116 1.05265 20.4314 1.26632C19.9512 1.48 19.5336 1.81287 19.2183 2.23333" stroke="var(--icon-stroke-color)" stroke-width="1.5" stroke-linecap="round" stroke-linejoin="round"/>
    <path d="M22.2973 13.3334H25.9973C25.9973 12.1885 25.5425 11.0906 24.733 10.281C23.9235 9.4715 22.8255 9.01671 21.6807 9.01671" stroke="var(--icon-stroke-color)" stroke-width="1.5" stroke-linecap="round" stroke-linejoin="round"/>
    <path d="M14.2841 2.23333C13.9688 1.81287 13.5512 1.48 13.071 1.26632C12.5908 1.05265 12.064 0.96526 11.5406 1.01246C11.0171 1.05966 10.5144 1.23988 10.0802 1.53601C9.646 1.83213 9.29469 2.23434 9.05965 2.70443C8.8246 3.17451 8.71362 3.69688 8.73725 4.22192C8.76087 4.74697 8.91831 5.25726 9.19462 5.70434C9.47094 6.15142 9.85694 6.52045 10.316 6.77638C10.775 7.03232 11.2919 7.16667 11.8175 7.16667" stroke="var(--icon-stroke-color)" stroke-width="1.5" stroke-linecap="round" stroke-linejoin="round"/>
    <path d="M11.8167 9.01671C10.6718 9.01671 9.57385 9.4715 8.76432 10.281C7.95479 11.0906 7.5 12.1885 7.5 13.3334H11.2" stroke="var(--icon-stroke-color)" stroke-width="1.5" stroke-linecap="round" stroke-linejoin="round"/>
  </symbol>
</svg>
