<svg preserveAspectRatio="none" width="100%" height="100%" overflow="visible" style="display: block;" viewBox="0 0 38 38" fill="none" xmlns="http://www.w3.org/2000/svg">
<g id="Frame">
<path id="Vector" d="M6.09583 13.6483C5.86473 12.6073 5.90022 11.5248 6.199 10.5012C6.49778 9.47757 7.05018 8.54595 7.80499 7.79273C8.5598 7.0395 9.49257 6.48905 10.5168 6.19241C11.5411 5.89577 12.6237 5.86255 13.6642 6.09583C14.2369 5.20014 15.0258 4.46304 15.9583 3.95245C16.8908 3.44187 17.9369 3.17424 19 3.17424C20.0631 3.17424 21.1092 3.44187 22.0417 3.95245C22.9742 4.46304 23.7631 5.20014 24.3358 6.09583C25.3779 5.86154 26.4624 5.89461 27.4882 6.19196C28.5141 6.48932 29.4482 7.04131 30.2034 7.79658C30.9587 8.55185 31.5107 9.48587 31.808 10.5118C32.1054 11.5376 32.1385 12.6221 31.9042 13.6642C32.7999 14.2369 33.537 15.0258 34.0475 15.9583C34.5581 16.8908 34.8258 17.9369 34.8258 19C34.8258 20.0631 34.5581 21.1092 34.0475 22.0417C33.537 22.9742 32.7999 23.7631 31.9042 24.3358C32.1374 25.3763 32.1042 26.4589 31.8076 27.4832C31.511 28.5074 30.9605 29.4402 30.2073 30.195C29.454 30.9498 28.5224 31.5022 27.4988 31.801C26.4752 32.0998 25.3927 32.1353 24.3517 31.9042C23.7797 32.8033 22.9901 33.5436 22.056 34.0564C21.1219 34.5693 20.0735 34.8382 19.0079 34.8382C17.9423 34.8382 16.8939 34.5693 15.9598 34.0564C15.0257 33.5436 14.2361 32.8033 13.6642 31.9042C12.6237 32.1374 11.5411 32.1042 10.5168 31.8076C9.49257 31.511 8.5598 30.9605 7.80499 30.2073C7.05018 29.454 6.49778 28.5224 6.199 27.4988C5.90022 26.4752 5.86473 25.3927 6.09583 24.3517C5.19327 23.7805 4.44982 22.9903 3.93466 22.0546C3.4195 21.1189 3.14935 20.0681 3.14935 19C3.14935 17.9319 3.4195 16.8811 3.93466 15.9454C4.44982 15.0097 5.19327 14.2195 6.09583 13.6483Z" stroke="var(--stroke-0, black)" stroke-width="3" stroke-linecap="round" stroke-linejoin="round"/>
<path id="Vector_2" d="M19 12.6667V25.3333" stroke="var(--stroke-0, black)" stroke-width="3" stroke-linecap="round" stroke-linejoin="round"/>
<path id="Vector_3" d="M12.6667 19H25.3333" stroke="var(--stroke-0, black)" stroke-width="3" stroke-linecap="round" stroke-linejoin="round"/>
</g>
</svg>
