<svg preserveAspectRatio="xMidYMid meet" width="100%" height="100%" overflow="visible" style="display: block;" viewBox="0 0 1000 585" fill="none" xmlns="http://www.w3.org/2000/svg">
<g id="Vector">
<path d="M976.435 584.236V514.066H1000V524.663H986.739V543.566H996.279V553.877H986.739V573.639H1000V584.236H976.435Z" fill="var(--fill-0, white)"/>
<path d="M925.363 584.236L914.677 514.066H924.695L929.847 555.5L930.228 562.278H930.801L931.183 555.5L936.334 514.066H946.352L935.667 584.236H925.363Z" fill="var(--fill-0, white)"/>
<path d="M874.274 584.236V514.066H884.578V584.236H874.274Z" fill="var(--fill-0, white)"/>
<path d="M824.66 584.236V524.663H814.928V514.066H844.695V524.663H834.964V584.236H824.66Z" fill="var(--fill-0, white)"/>
<path d="M758.508 584.236L769.098 514.066H781.692L792.282 584.236H782.264L780.356 569.916H770.434L768.526 584.236H758.508ZM771.865 559.032H778.925L775.967 535.451L775.681 531.728H775.109L774.822 535.451L771.865 559.032Z" fill="var(--fill-0, white)"/>
<path d="M701.748 584.236V514.066H712.052C718.222 514.066 722.769 515.784 725.695 519.221C728.621 522.626 730.084 527.654 730.084 534.305C730.084 538.251 729.384 541.672 727.985 544.568C726.618 547.432 724.948 549.533 722.976 550.869L729.989 584.236H719.685L713.865 554.64H712.052V584.236H701.748ZM712.052 545.094C713.96 545.094 715.471 544.68 716.584 543.852C717.697 542.993 718.492 541.784 718.969 540.225C719.446 538.665 719.685 536.819 719.685 534.687C719.685 531.346 719.128 528.784 718.015 527.002C716.934 525.188 714.946 524.281 712.052 524.281V545.094Z" fill="var(--fill-0, white)"/>
<path d="M645.73 584.236V514.066H669.296V524.663H656.034V543.566H665.575V553.877H656.034V573.639H669.296V584.236H645.73Z" fill="var(--fill-0, white)"/>
<path d="M587.383 584.236V514.066H597.687C601.598 514.066 604.858 514.925 607.466 516.643C610.106 518.362 612.077 520.796 613.381 523.947C614.685 527.097 615.337 530.805 615.337 535.069C615.337 539.333 614.653 543.009 613.286 546.096C611.918 549.183 609.915 551.601 607.275 553.352C604.667 555.07 601.471 556.009 597.687 556.168V584.236H587.383ZM597.687 545.666C599.499 545.666 600.931 545.316 601.98 544.616C603.029 543.884 603.777 542.739 604.222 541.179C604.699 539.62 604.938 537.615 604.938 535.165C604.938 532.682 604.699 530.662 604.222 529.102C603.777 527.543 603.014 526.397 601.932 525.665C600.883 524.933 599.468 524.567 597.687 524.567V545.666Z" fill="var(--fill-0, white)"/>
<path d="M541.645 585C538.783 585 536.318 584.332 534.251 582.995C532.215 581.659 530.641 579.845 529.528 577.553C528.447 575.262 527.906 572.684 527.906 569.82V528.482C527.906 525.586 528.447 523.008 529.528 520.749C530.641 518.457 532.215 516.643 534.251 515.307C536.318 513.97 538.783 513.302 541.645 513.302C544.507 513.302 546.956 513.97 548.991 515.307C551.058 516.643 552.632 518.457 553.714 520.749C554.827 523.04 555.383 525.618 555.383 528.482V569.82C555.383 572.684 554.827 575.262 553.714 577.553C552.632 579.845 551.058 581.659 548.991 582.995C546.956 584.332 544.507 585 541.645 585ZM541.645 574.976C542.917 574.976 543.807 574.451 544.316 573.4C544.825 572.318 545.079 571.125 545.079 569.82V528.482C545.079 527.177 544.809 525.999 544.268 524.949C543.728 523.867 542.853 523.326 541.645 523.326C540.468 523.326 539.594 523.867 539.021 524.949C538.48 525.999 538.21 527.177 538.21 528.482V569.82C538.21 571.125 538.48 572.318 539.021 573.4C539.562 574.451 540.436 574.976 541.645 574.976Z" fill="var(--fill-0, white)"/>
<path d="M482.645 585C479.783 585 477.318 584.332 475.251 582.995C473.216 581.659 471.642 579.845 470.529 577.553C469.447 575.262 468.907 572.684 468.907 569.82V528.482C468.907 525.586 469.447 523.008 470.529 520.749C471.642 518.457 473.216 516.643 475.251 515.307C477.318 513.97 479.783 513.302 482.645 513.302C485.507 513.302 487.956 513.97 489.992 515.307C492.059 516.643 493.633 518.457 494.714 520.749C495.827 523.04 496.384 525.618 496.384 528.482V569.82C496.384 572.684 495.827 575.262 494.714 577.553C493.633 579.845 492.059 581.659 489.992 582.995C487.956 584.332 485.507 585 482.645 585ZM482.645 574.976C483.917 574.976 484.808 574.451 485.317 573.4C485.825 572.318 486.08 571.125 486.08 569.82V528.482C486.08 527.177 485.81 525.999 485.269 524.949C484.728 523.867 483.854 523.326 482.645 523.326C481.469 523.326 480.594 523.867 480.022 524.949C479.481 525.999 479.211 527.177 479.211 528.482V569.82C479.211 571.125 479.481 572.318 480.022 573.4C480.562 574.451 481.437 574.976 482.645 574.976Z" fill="var(--fill-0, white)"/>
<path d="M423.646 585C420.72 585 418.223 584.348 416.156 583.043C414.121 581.706 412.563 579.892 411.481 577.601C410.432 575.31 409.907 572.716 409.907 569.82V528.482C409.907 525.618 410.448 523.04 411.529 520.749C412.642 518.457 414.232 516.643 416.299 515.307C418.367 513.97 420.815 513.302 423.646 513.302C425.776 513.302 427.685 513.7 429.37 514.495C431.056 515.291 432.487 516.389 433.663 517.789C434.872 519.157 435.794 520.764 436.43 522.61C437.066 524.424 437.384 526.381 437.384 528.482V538.124H427.748V528.482C427.748 527.018 427.446 525.793 426.842 524.806C426.238 523.82 425.236 523.326 423.837 523.326C422.564 523.326 421.642 523.835 421.07 524.854C420.497 525.872 420.211 527.081 420.211 528.482V569.82C420.211 571.22 420.513 572.43 421.117 573.448C421.754 574.466 422.66 574.976 423.837 574.976C425.268 574.976 426.269 574.482 426.842 573.496C427.446 572.509 427.748 571.284 427.748 569.82V560.178H437.384V569.82C437.384 572.684 436.828 575.262 435.715 577.553C434.602 579.845 433.012 581.659 430.944 582.995C428.909 584.332 426.476 585 423.646 585Z" fill="var(--fill-0, white)"/>
<path d="M311.951 584.236V514.066H322.255C328.425 514.066 332.972 515.784 335.898 519.221C338.824 522.626 340.287 527.654 340.287 534.305C340.287 538.251 339.587 541.672 338.188 544.568C336.82 547.432 335.151 549.533 333.179 550.869L340.191 584.236H329.888L324.068 554.64H322.255V584.236H311.951ZM322.255 545.094C324.163 545.094 325.674 544.68 326.787 543.852C327.9 542.993 328.695 541.784 329.172 540.225C329.649 538.665 329.888 536.819 329.888 534.687C329.888 531.346 329.331 528.784 328.218 527.002C327.137 525.188 325.149 524.281 322.255 524.281V545.094Z" fill="var(--fill-0, white)"/>
<path d="M255.933 584.236V514.066H279.498V524.663H266.237V543.566H275.778V553.877H266.237V573.639H279.498V584.236H255.933Z" fill="var(--fill-0, white)"/>
<path d="M195.35 584.236V514.066H205.653V538.601H206.035L206.512 537.456L214.526 514.066H225.116L215.671 537.169L226.357 584.236H215.767L208.897 552.254H208.611L205.653 559.414V584.236H195.35Z" fill="var(--fill-0, white)"/>
<path d="M136.443 584.236V514.066H146.747C152.917 514.066 157.464 515.784 160.39 519.221C163.316 522.626 164.779 527.654 164.779 534.305C164.779 538.251 164.079 541.672 162.68 544.568C161.313 547.432 159.643 549.533 157.671 550.869L164.684 584.236H154.38L148.56 554.64H146.747V584.236H136.443ZM146.747 545.094C148.655 545.094 150.166 544.68 151.279 543.852C152.392 542.993 153.187 541.784 153.664 540.225C154.141 538.665 154.38 536.819 154.38 534.687C154.38 531.346 153.823 528.784 152.71 527.002C151.629 525.188 149.641 524.281 146.747 524.281V545.094Z" fill="var(--fill-0, white)"/>
<path d="M90.7052 585C87.843 585 85.3783 584.332 83.3112 582.995C81.2758 581.659 79.7016 579.845 78.5885 577.553C77.5072 575.262 76.9666 572.684 76.9666 569.82V528.482C76.9666 525.586 77.5072 523.008 78.5885 520.749C79.7016 518.457 81.2758 516.643 83.3112 515.307C85.3783 513.97 87.843 513.302 90.7052 513.302C93.5674 513.302 96.0162 513.97 98.0515 515.307C100.119 516.643 101.693 518.457 102.774 520.749C103.887 523.04 104.444 525.618 104.444 528.482V569.82C104.444 572.684 103.887 575.262 102.774 577.553C101.693 579.845 100.119 581.659 98.0515 582.995C96.0162 584.332 93.5674 585 90.7052 585ZM90.7052 574.976C91.9773 574.976 92.8678 574.451 93.3766 573.4C93.8854 572.318 94.1399 571.125 94.1399 569.82V528.482C94.1399 527.177 93.8695 525.999 93.3289 524.949C92.7883 523.867 91.9137 523.326 90.7052 523.326C89.5285 523.326 88.654 523.867 88.0815 524.949C87.5409 525.999 87.2705 527.177 87.2705 528.482V569.82C87.2705 571.125 87.5409 572.318 88.0815 573.4C88.6222 574.451 89.4967 574.976 90.7052 574.976Z" fill="var(--fill-0, white)"/>
<path d="M10.8764 584.236L1.4311 514.066H10.9718L15.0743 550.535L15.2651 552.827H16.0284L16.3146 550.535L20.7033 514.066H28.1451L32.5338 550.535L32.82 552.827H33.5833L33.7741 550.535L37.8766 514.066H47.4173L37.972 584.236H29.9578L25.1874 551.013L24.615 546.907H24.2334L23.6609 551.013L18.8906 584.236H10.8764Z" fill="var(--fill-0, white)"/>
<path d="M79.7976 214.945L129.739 72.0966L176.695 214.945H178.957L222.565 70.4825C232.607 37.3934 242.017 19.6382 254.841 16.141V14.5269H208.089V16.141C226.817 19.6382 227.088 36.3173 217.317 68.8684L194.518 145.269L161.224 41.6976C156.338 26.3637 161.224 17.2171 177.238 16.141V14.5269H98.2542V16.141C108.84 17.2171 115.082 27.1707 122.139 48.9611L127.025 64.2951L97.44 149.843L63.7838 41.6976C59.2601 26.6327 64.0552 17.2171 78.7119 16.141V14.5269H0V16.141C11.3092 17.2171 17.9138 27.1707 24.6993 48.9611L77.6263 214.855L79.7976 214.945Z" fill="var(--fill-0, white)"/>
<path d="M284.449 48.4232C288.705 48.3965 292.858 47.123 296.385 44.7628C299.913 42.4026 302.658 39.0611 304.274 35.1587C305.89 31.2563 306.306 26.9673 305.469 22.8312C304.632 18.6952 302.58 14.8968 299.571 11.9139C296.561 8.93101 292.729 6.89688 288.556 6.06738C284.383 5.23788 280.055 5.65006 276.118 7.25208C272.181 8.85411 268.809 11.5744 266.428 15.0708C264.047 18.5671 262.762 22.6834 262.735 26.9018C262.714 29.7338 263.261 32.5418 264.345 35.1623C265.429 37.7828 267.027 40.1636 269.048 42.1662C271.068 44.1688 273.471 45.7533 276.114 46.8275C278.758 47.9016 281.591 48.444 284.449 48.4232Z" fill="var(--fill-0, white)"/>
<path d="M305.077 66.7163H303.991L253.326 78.4634V80.0775C262.554 83.3057 267.168 88.148 267.168 105.365V182.394C267.168 199.611 266.354 208.757 255.226 208.757V210.372H317.11V208.757C305.981 208.757 305.167 199.611 305.167 182.394L305.077 66.7163Z" fill="var(--fill-0, white)"/>
<path d="M344.161 175.668C344.161 202.57 357.189 213.6 379.174 213.6C396.002 213.6 414.188 202.839 427.216 186.429L425.587 185.353C418.53 191.002 409.302 196.114 401.159 196.114C388.945 196.114 382.16 189.119 382.16 175.13V81.5122H444.315V182.394C444.315 199.611 443.501 208.757 432.373 208.757V210.372H494.257V208.757C483.128 208.757 482.314 199.611 482.314 182.394V94.6941C490.05 89.8355 498.928 87.0543 508.076 86.6236C525.719 86.6236 528.998 99.2674 528.998 117.83V182.394C528.998 199.611 528.162 208.757 517.033 208.757V210.372H579.03V208.757C567.902 208.757 567.088 199.611 567.088 182.394V108.145C567.088 81.2432 555.145 66.1783 531.803 66.1783C513.369 66.1783 495.998 78.5531 482.427 92.0039V0H481.342L430.473 9.68462V11.2091C439.701 14.4373 444.315 19.2796 444.315 36.4967V69.4961H382.25V29.3229H380.622C367.322 55.6866 353.208 66.9853 333.938 75.8629L330.138 77.746V81.5122H344.252L344.161 175.668Z" fill="var(--fill-0, white)"/>
<path d="M425.972 376.759C418.915 363.308 411.858 353.354 403.987 348.781V348.243C429.5 341.787 447.685 324.838 447.685 298.923C447.685 267.717 424.615 248.639 378.745 248.639H296.301V250.253C314.757 250.253 315.843 263.704 315.843 283.589V409.579C315.843 429.486 314.757 442.937 296.301 442.937V444.551H376.098V442.937C357.642 442.937 356.013 429.486 356.013 409.579V351.292H362.527C371.213 351.292 374.198 353.713 378.541 362.86C411.654 439.081 416.54 445.807 438.796 445.807C448.296 445.807 465.124 445.269 470.462 444.731V443.116C459.357 439.395 454.471 430.293 425.972 376.759ZM371.688 346.898H355.855V262.695C355.855 256.261 359.655 253.033 366.169 253.033H371.869C395.754 253.033 406.611 273.21 406.611 301.972C406.701 331.564 394.216 346.898 371.688 346.898Z" fill="var(--fill-0, white)"/>
<path d="M584.481 430.831C576.067 430.831 576.067 422.492 576.067 411.462V347.705C576.067 318.382 559.782 300.358 531.012 300.358C517.883 300.23 505.068 304.332 494.495 312.046C483.922 319.76 476.163 330.669 472.385 343.132L474.013 343.939C481.613 329.412 495.184 317.306 512.465 317.306C538.792 317.306 538.792 345.284 538.792 352.816V369.495L514.093 376.221C482.065 385.188 467.137 398.818 467.137 418.815C467.137 436.301 480.166 447.959 499.165 447.959C514.998 447.959 530.831 438.543 540.421 425.541C541.235 435.225 545.306 447.959 563.22 447.959C581.134 447.959 592.624 434.508 596.876 426.168L595.248 425.092C593.985 426.77 592.367 428.154 590.507 429.145C588.647 430.137 586.59 430.712 584.481 430.831ZM538.883 423.299C533.726 427.782 526.669 431.369 520.788 431.369C510.746 431.369 502.874 422.761 502.874 408.234C502.874 392.362 508.031 384.56 527.755 377.297L538.883 373.262V423.299Z" fill="var(--fill-0, white)"/>
<path d="M734.306 416.573V342.324C734.306 315.423 722.363 300.358 699.021 300.358C680.564 300.358 663.193 312.733 649.622 326.183V300.896H648.537L597.781 312.733V314.347C607.009 317.575 611.624 322.417 611.624 339.634V416.573C611.624 433.79 610.809 442.937 599.681 442.937V444.551H661.565V442.937C650.437 442.937 649.622 433.79 649.622 416.573V328.874C657.366 324.012 666.252 321.231 675.407 320.803C693.05 320.803 696.307 333.447 696.307 352.009V416.573C696.307 433.79 695.492 442.937 684.364 442.937V444.551H746.248V442.937C735.097 442.937 734.306 433.79 734.306 416.573Z" fill="var(--fill-0, white)"/>
<path d="M837.717 347.481C862.145 324.345 884.672 306.859 894.263 305.245V303.631H839.978V305.245C841.437 305.265 842.876 305.572 844.214 306.148C845.552 306.724 846.76 307.558 847.77 308.601C848.78 309.643 849.571 310.875 850.097 312.223C850.624 313.571 850.875 315.009 850.835 316.454C850.835 325.421 844.864 334.388 833.464 345.598L809.037 369.271C841.336 432.49 847.307 445.672 871.192 445.672C880.125 445.776 889.057 445.401 897.949 444.551V442.937C891.164 440.785 873.544 413.345 837.717 347.481Z" fill="var(--fill-0, white)"/>
<path d="M803.246 416.573V236.556C803.849 232.117 804.887 227.748 806.345 223.509C800.016 227.475 793.33 230.852 786.373 233.597C779.585 236.286 772.626 238.533 765.542 240.322C751.618 243.844 737.339 245.799 722.974 246.151C715.826 246.27 708.717 246.084 701.645 245.59C694.542 244.94 687.486 244.313 680.451 243.057C673.417 241.802 666.45 240.501 659.507 238.843L637.838 233.328C622.663 229.575 607.199 227.078 591.606 225.862C587.671 225.549 583.667 225.414 579.709 225.302C575.751 225.19 571.725 225.302 567.699 225.526C559.596 225.921 551.54 226.97 543.61 228.665C535.553 230.358 527.709 232.929 520.223 236.332C512.727 239.806 505.736 244.262 499.436 249.581C493.362 254.787 487.98 260.738 483.423 267.291C479.049 273.619 475.221 280.301 471.978 287.266C477.972 282.468 483.785 277.603 489.688 273.21C495.36 268.931 501.417 265.179 507.783 262C520.112 256.051 533.498 252.555 547.184 251.711C574.642 249.715 603.232 254.423 631.709 260.207L642.43 262.449C646.184 263.233 650.097 264.108 653.943 264.825C661.726 266.241 669.577 267.266 677.466 267.896C693.311 269.258 709.265 268.671 724.964 266.148C738.018 264.013 750.758 260.293 762.895 255.073C764.727 260.097 765.534 265.431 765.27 270.766V416.484C765.27 433.701 764.456 442.847 753.328 442.847V444.461H815.211V442.847C804.061 442.937 803.246 433.79 803.246 416.573Z" fill="var(--fill-0, white)"/>
<path d="M958.77 356.851L948.185 351.202C937.328 345.553 924.843 339.096 924.843 324.569C924.843 312.733 933.257 304.124 947.461 304.124C965.918 304.124 979.127 320.265 988.174 339.634H989.803V307.128C977.313 302.835 964.208 300.564 950.99 300.403C923.033 300.403 900.777 316.275 900.777 343.983C900.777 369.54 919.505 379.494 931.176 385.681L941.761 391.33C960.761 401.284 972.432 407.023 972.432 421.46C972.432 436.794 959.946 444.058 945.561 444.058C922.762 444.058 910.548 423.882 899.148 401.463H897.52L899.962 440.471C910.276 444.955 927.104 447.734 940.404 447.734C973.789 447.734 996.588 429.979 996.588 401.463C996.498 375.414 977.227 366.536 958.77 356.851Z" fill="var(--fill-0, white)"/>
<path d="M89.2748 401.62C82.15 401.62 78.1918 397.54 78.1918 389.38V334.77H100.516L103.208 327.708H78.1918V304.326H77.2418C69.4837 319.705 61.2506 326.296 50.0998 331.474L47.8379 332.573V334.814H56.071V389.739C56.071 405.432 63.6708 411.865 76.4275 411.865C86.2439 411.865 96.7841 405.588 104.452 396.016L103.502 395.388C99.5209 398.639 94.0246 401.62 89.2748 401.62Z" fill="var(--fill-0, white)"/>
<path d="M111.147 387.968V388.909H147.336V387.968C140.845 387.968 140.37 382.632 140.37 372.589V321.431C144.886 318.594 150.07 316.972 155.411 316.723C165.725 316.723 167.625 324.099 167.625 334.927V372.589C167.625 382.632 167.15 387.968 160.658 387.968V388.909H196.78V387.968C190.288 387.968 189.813 382.632 189.813 372.589V329.277C189.813 313.585 182.847 304.797 169.231 304.797C158.442 304.797 148.309 312.015 140.392 319.862V266.193H139.759L110.151 271.842V272.784C115.535 274.667 118.226 277.491 118.226 287.535V372.589C118.113 382.632 117.615 387.968 111.147 387.968Z" fill="var(--fill-0, white)"/>
<path d="M250.725 352.749C233.625 352.749 226.5 336.742 226.5 312.396V310.827H273.999C274.949 290.651 263.233 277.872 243.916 277.872C220.484 277.872 204.018 297.331 204.018 322.283C204.018 344.701 216.367 363.868 240.207 363.868C257.94 363.868 267.756 353.04 274.135 341.899L273.185 341.271C270.661 344.846 267.297 347.759 263.384 349.759C259.472 351.758 255.127 352.785 250.725 352.749ZM243.283 280.092C253.258 280.092 255.633 291.077 254.366 308.339H226.659C227.292 293.901 232.2 280.092 243.283 280.092Z" fill="var(--fill-0, white)"/>
<path d="M264.273 445.47V398.549L140.664 448.295L264.273 445.47Z" fill="var(--fill-0, white)"/>
</g>
</svg>
