<svg preserveAspectRatio="none" width="100%" height="100%" overflow="visible" style="display: block;" viewBox="0 0 63.9981 83.4227" fill="none" xmlns="http://www.w3.org/2000/svg">
<g id="Group 230">
<circle id="Ellipse 14" cx="31.999" cy="51.4236" r="30.999" fill="url(#paint0_linear_0_33)" stroke="var(--stroke-0, black)" stroke-width="2"/>
<path id="&#226;&#164;&#179;" d="M31.2087 65.2192L31.07 64.9428C28.674 60.1509 24.8815 55.4658 19.6735 51.0199L19.4977 50.8705L19.4977 46.1391L20.2116 46.476C24.1896 48.3513 27.3967 50.1928 29.6735 52.0473L29.6735 40.9125C29.6735 37.7616 29.8654 35.5118 30.6813 33.3139C31.4949 31.1224 32.9142 29.0233 35.2878 26.1361L35.2868 26.1361C36.945 24.0634 37.8758 22.6763 38.3942 21.5863C38.9017 20.5191 39.0173 19.7295 39.0173 18.8324C39.0172 17.7164 38.8396 16.8589 38.3122 15.9067C37.7713 14.9301 36.8523 13.8351 35.32 12.2709L27.9674 5.04532L27.6149 4.69962L27.9567 4.34317L31.0934 1.07853L31.445 0.712314L31.8053 1.06974L38.9733 8.17423L38.9753 8.17521C42.8506 12.0505 44.5611 14.9237 44.5612 18.8324C44.5612 23.1943 42.5156 25.8208 39.0085 30.0932C37.4176 32.0341 36.4853 33.4211 35.9391 34.9154C35.3936 36.4081 35.2175 38.0501 35.2174 40.5277L35.2174 52.0473C37.4944 50.1927 40.702 48.3515 44.6803 46.476L45.3932 46.1391L45.3932 50.8686L45.2204 51.018C40.0724 55.4669 36.2161 60.1526 33.821 64.9428L33.6823 65.2192L31.2087 65.2192Z" fill="var(--fill-0, black)" stroke="var(--stroke-0, black)"/>
</g>
<defs>
<linearGradient id="paint0_linear_0_33" x1="63.9981" y1="81.9817" x2="-9.05346" y2="67.929" gradientUnits="userSpaceOnUse">
<stop stop-color="#FFEFC0"/>
<stop offset="1" stop-color="#FAC328"/>
</linearGradient>
</defs>
</svg>
