<svg preserveAspectRatio="none" width="100%" height="100%" overflow="visible" style="display: block;" viewBox="0 0 16.5 16.5" fill="none" xmlns="http://www.w3.org/2000/svg">
<path id="Vector" fill-rule="evenodd" clip-rule="evenodd" d="M1.14231 0C0.511432 0 0 0.511424 0 1.14231V15.3577C0 15.9886 0.511424 16.5 1.14231 16.5H15.3577C15.9886 16.5 16.5 15.9886 16.5 15.3577V1.14231C16.5 0.511432 15.9886 0 15.3577 0H1.14231ZM6.45517 5.22195H10.6434C10.8059 5.22195 10.9683 5.2839 11.0921 5.40782C11.1531 5.46866 11.1989 5.53879 11.2299 5.61364C11.261 5.68846 11.278 5.77051 11.278 5.85656V10.0449C11.278 10.3953 10.9939 10.6795 10.6434 10.6795C10.293 10.6795 10.0088 10.3953 10.0088 10.0449V7.38862L6.3056 11.0919C6.05777 11.3397 5.65595 11.3397 5.40812 11.0919C5.16029 10.8441 5.16029 10.4422 5.40812 10.1944L9.11138 6.49118H6.45517C6.10469 6.49118 5.82056 6.20705 5.82056 5.85656C5.82056 5.50607 6.10469 5.22195 6.45517 5.22195Z" fill="var(--fill-0, black)"/>
</svg>
