<svg preserveAspectRatio="xMidYMid meet" width="225" height="101" overflow="visible" style="display: block;" viewBox="0 0 225 101" fill="none" xmlns="http://www.w3.org/2000/svg">
<g id="Logo">
<path d="M18.0159 48.4266L29.2912 16.2432L39.8924 48.4266H40.4031L50.2485 15.8796C52.5158 8.42465 54.6402 4.42445 57.5356 3.63653V3.27288H46.9803V3.63653C51.2086 4.42445 51.2698 8.18222 49.0638 15.5159L43.9164 32.7289L36.3995 9.3944C35.2965 5.93968 36.3995 3.87897 40.015 3.63653V3.27288H22.1829V3.63653C24.5728 3.87897 25.9822 6.12151 27.5754 11.0308L28.6784 14.4856L21.999 33.7592L14.4005 9.3944C13.3792 6.00029 14.4618 3.87897 17.7708 3.63653V3.27288H0V3.63653C2.55328 3.87897 4.04439 6.12151 5.57636 11.0308L17.5257 48.4064L18.0159 48.4266Z" fill="var(--fill-0, white)"/>
<path d="M64.2201 10.9096C65.181 10.9036 66.1186 10.6167 66.915 10.085C67.7115 9.55323 68.3311 8.8004 68.696 7.9212C69.061 7.04199 69.1548 6.07569 68.9659 5.14384C68.7769 4.21199 68.3136 3.35622 67.6341 2.68418C66.9547 2.01214 66.0894 1.55385 65.1473 1.36697C64.2052 1.18008 63.2282 1.27295 62.3393 1.63388C61.4503 1.99481 60.6892 2.60769 60.1516 3.39542C59.6139 4.18314 59.3239 5.11053 59.3178 6.06092C59.313 6.69897 59.4366 7.3316 59.6813 7.922C59.9259 8.51239 60.2869 9.04878 60.743 9.49997C61.1992 9.95116 61.7415 10.3081 62.3385 10.5501C62.9354 10.7921 63.575 10.9143 64.2201 10.9096Z" fill="var(--fill-0, white)"/>
<path d="M68.8772 15.0311H68.6321L57.1934 17.6777V18.0413C59.2769 18.7686 60.3187 19.8596 60.3187 23.7386V41.093C60.3187 44.9719 60.1348 47.0326 57.6224 47.0326V47.3963H71.5939V47.0326C69.0815 47.0326 68.8977 44.9719 68.8977 41.093L68.8772 15.0311Z" fill="var(--fill-0, white)"/>
<path d="M77.7014 39.5777C77.7014 45.6386 80.6427 48.1236 85.6063 48.1236C89.4056 48.1236 93.5113 45.6992 96.4526 42.0021L96.085 41.7597C94.4917 43.0324 92.4082 44.184 90.5699 44.184C87.8123 44.184 86.2804 42.6082 86.2804 39.4565V18.3646H100.313V41.093C100.313 44.9719 100.129 47.0326 97.6169 47.0326V47.3963H111.588V47.0326C109.076 47.0326 108.892 44.9719 108.892 41.093V21.3344C110.639 20.2398 112.643 19.6132 114.709 19.5161C118.692 19.5161 119.432 22.3648 119.432 26.5468V41.093C119.432 44.9719 119.243 47.0326 116.731 47.0326V47.3963H130.728V47.0326C128.215 47.0326 128.032 44.9719 128.032 41.093V24.3649C128.032 18.3039 125.335 14.9098 120.065 14.9098C115.904 14.9098 111.982 17.6979 108.918 20.7283V0H108.673L97.188 2.18193V2.52538C99.2715 3.25269 100.313 4.34365 100.313 8.22263V15.6573H86.3008V6.60639H85.9331C82.9305 12.5461 79.744 15.0917 75.3932 17.0918L74.5353 17.516V18.3646H77.7218L77.7014 39.5777Z" fill="var(--fill-0, white)"/>
<path d="M96.1718 84.883C94.5785 81.8526 92.9853 79.61 91.2082 78.5797V78.4585C96.9684 77.0038 101.074 73.1855 101.074 67.3468C101.074 60.3162 95.8654 56.018 85.5093 56.018H66.8959V56.3816C71.0629 56.3816 71.308 59.4121 71.308 63.8921V92.2773C71.308 96.7624 71.0629 99.7929 66.8959 99.7929V100.157H84.9118V99.7929C80.7449 99.7929 80.3772 96.7624 80.3772 92.2773V79.1454H81.8479C83.8088 79.1454 84.4829 79.6909 85.4633 81.7516C92.9393 98.9241 94.0424 100.439 99.0672 100.439C101.212 100.439 105.011 100.318 106.216 100.197V99.8333C103.709 98.9948 102.606 96.9442 96.1718 84.883ZM83.9161 78.1554H80.3415V59.1848C80.3415 57.7352 81.1994 57.0079 82.6701 57.0079H83.9569C89.3494 57.0079 91.8006 61.5536 91.8006 68.0337C91.821 74.7007 89.0022 78.1554 83.9161 78.1554Z" fill="var(--fill-0, white)"/>
<path d="M131.959 97.0654C130.059 97.0654 130.059 95.1866 130.059 92.7016V78.3372C130.059 71.7309 126.382 67.67 119.887 67.67C116.923 67.6413 114.029 68.5654 111.642 70.3034C109.255 72.0414 107.503 74.4991 106.65 77.3069L107.018 77.4887C108.734 74.2158 111.798 71.4884 115.699 71.4884C121.643 71.4884 121.643 77.7918 121.643 79.4888V83.2466L116.067 84.7618C108.836 86.7821 105.466 89.853 105.466 94.3582C105.466 98.2978 108.407 100.924 112.697 100.924C116.271 100.924 119.846 98.8029 122.011 95.8735C122.195 98.0554 123.114 100.924 127.158 100.924C131.203 100.924 133.797 97.8938 134.757 96.0149L134.389 95.7725C134.104 96.1505 133.739 96.4622 133.319 96.6856C132.899 96.909 132.435 97.0387 131.959 97.0654ZM121.664 95.3684C120.499 96.3785 118.906 97.1867 117.578 97.1867C115.311 97.1867 113.534 95.2472 113.534 91.9743C113.534 88.3983 114.698 86.6407 119.151 85.0042L121.664 84.0951V95.3684Z" fill="var(--fill-0, white)"/>
<path d="M165.784 93.8532V77.125C165.784 71.0641 163.088 67.67 157.818 67.67C153.651 67.67 149.729 70.458 146.665 73.4885V67.7913H146.42L134.961 70.458V70.8217C137.045 71.549 138.086 72.64 138.086 76.519V93.8532C138.086 97.7321 137.903 99.7928 135.39 99.7928V100.157H149.362V99.7928C146.849 99.7928 146.665 97.7321 146.665 93.8532V74.0946C148.414 72.9993 150.42 72.3727 152.487 72.2763C156.47 72.2763 157.205 75.125 157.205 79.307V93.8532C157.205 97.7321 157.022 99.7928 154.509 99.7928V100.157H168.481V99.7928C165.963 99.7928 165.784 97.7321 165.784 93.8532Z" fill="var(--fill-0, white)"/>
<path d="M189.132 78.2867C194.647 73.0743 199.733 69.1348 201.898 68.7711V68.4074H189.642V68.7711C189.971 68.7757 190.296 68.8449 190.598 68.9746C190.9 69.1044 191.173 69.2922 191.401 69.5271C191.629 69.7621 191.808 70.0394 191.927 70.3432C192.046 70.6469 192.102 70.9709 192.093 71.2965C192.093 73.3168 190.745 75.3371 188.172 77.8625L182.656 83.1961C189.949 97.4392 191.297 100.409 196.689 100.409C198.706 100.432 200.723 100.348 202.73 100.157V99.7928C201.198 99.308 197.22 93.1259 189.132 78.2867Z" fill="var(--fill-0, white)"/>
<path d="M181.349 93.8532V53.2956C181.485 52.2956 181.72 51.3111 182.049 50.3561C180.62 51.2497 179.11 52.0106 177.54 52.6289C176.007 53.2349 174.436 53.741 172.837 54.1441C169.693 54.9376 166.469 55.3781 163.226 55.4573C161.612 55.4843 160.007 55.4422 158.411 55.331C156.807 55.1846 155.214 55.0432 153.626 54.7603C152.038 54.4775 150.465 54.1845 148.897 53.8108L144.005 52.5683C140.579 51.7227 137.087 51.1601 133.567 50.8864C132.679 50.8157 131.775 50.7854 130.881 50.7601C129.987 50.7349 129.078 50.7601 128.17 50.8106C126.34 50.8995 124.521 51.136 122.731 51.5177C120.912 51.8991 119.141 52.4784 117.451 53.2451C115.759 54.0278 114.18 55.0318 112.758 56.2301C111.386 57.4029 110.171 58.7437 109.142 60.2202C108.155 61.6459 107.291 63.1513 106.559 64.7204C107.912 63.6395 109.224 62.5435 110.557 61.5536C111.838 60.5896 113.205 59.7442 114.642 59.0282C117.426 57.6878 120.448 56.9002 123.538 56.7099C129.737 56.2604 136.192 57.321 142.621 58.6241L145.042 59.1292C145.889 59.306 146.773 59.503 147.641 59.6646C149.398 59.9836 151.171 60.2146 152.952 60.3565C156.529 60.6634 160.131 60.5311 163.675 59.9626C166.623 59.4815 169.499 58.6436 172.239 57.4675C172.653 58.5993 172.835 59.8011 172.775 61.003V93.833C172.775 97.7119 172.591 99.7726 170.079 99.7726V100.136H184.051V99.7726C181.533 99.7929 181.349 97.7322 181.349 93.8532Z" fill="var(--fill-0, white)"/>
<path d="M216.462 80.3979L214.072 79.1252C211.621 77.8524 208.802 76.3977 208.802 73.1249C208.802 70.4581 210.702 68.5186 213.909 68.5186C218.076 68.5186 221.058 72.1551 223.1 76.519H223.468V69.1954C220.648 68.2281 217.689 67.7165 214.705 67.6801C208.394 67.6801 203.369 71.2561 203.369 77.4988C203.369 83.2567 207.597 85.4992 210.232 86.8932L212.622 88.166C216.911 90.4085 219.546 91.7015 219.546 94.9542C219.546 98.4089 216.727 100.045 213.48 100.045C208.332 100.045 205.575 95.4997 203.001 90.449H202.633L203.185 99.2373C205.513 100.247 209.313 100.874 212.315 100.874C219.853 100.874 225 96.8735 225 90.449C224.98 84.58 220.629 82.5799 216.462 80.3979Z" fill="var(--fill-0, white)"/>
<path d="M20.1556 90.4843C18.547 90.4843 17.6534 89.5651 17.6534 87.7266V75.4229H22.6936L23.3012 73.832H17.6534V68.564H17.4389C15.6874 72.0288 13.8286 73.5138 11.311 74.6805L10.8004 74.928V75.4331H12.6592V87.8074C12.6592 91.3429 14.375 92.7925 17.2551 92.7925C19.4713 92.7925 21.851 91.3783 23.5821 89.2216L23.3676 89.0802C22.4689 89.8126 21.228 90.4843 20.1556 90.4843Z" fill="var(--fill-0, white)"/>
<path d="M25.0936 87.4084V87.6205H33.2641V87.4084C31.7985 87.4084 31.6913 86.2063 31.6913 83.9436V72.4178C32.711 71.7787 33.8813 71.4132 35.0871 71.3571C37.4157 71.3571 37.8447 73.0188 37.8447 75.4583V83.9436C37.8447 86.2063 37.7374 87.4084 36.2719 87.4084V87.6205H44.427V87.4084C42.9614 87.4084 42.8542 86.2063 42.8542 83.9436V74.1855C42.8542 70.65 41.2814 68.6701 38.2072 68.6701C35.7714 68.6701 33.4837 70.2964 31.6964 72.0642V59.9727H31.5534L24.8689 61.2455V61.4576C26.0843 61.8819 26.6919 62.5183 26.6919 64.781V83.9436C26.6664 86.2063 26.5541 87.4084 25.0936 87.4084Z" fill="var(--fill-0, white)"/>
<path d="M56.6062 79.4737C52.7456 79.4737 51.137 75.8674 51.137 70.3823V70.0287H61.8608C62.0753 65.4831 59.4301 62.6041 55.0691 62.6041C49.7787 62.6041 46.0611 66.9882 46.0611 72.6097C46.0611 77.6604 48.8493 81.9788 54.2316 81.9788C58.2352 81.9788 60.4514 79.5393 61.8914 77.0291L61.677 76.8877C61.1072 77.6931 60.3478 78.3494 59.4644 78.7999C58.581 79.2505 57.6001 79.4817 56.6062 79.4737ZM54.9261 63.1042C57.1781 63.1042 57.7143 65.579 57.4283 69.4681H51.1728C51.3158 66.2154 52.4239 63.1042 54.9261 63.1042Z" fill="var(--fill-0, white)"/>
<path d="M59.665 100.364V89.7924L31.7576 101L59.665 100.364Z" fill="var(--fill-0, white)"/>
</g>
</svg>
