<svg preserveAspectRatio="none" width="100%" height="100%" overflow="visible" style="display: block;" viewBox="0 0 64 64" fill="none" xmlns="http://www.w3.org/2000/svg">
<g id="Group 12">
<g id="Vector">
<path d="M8 16C8 11.5817 11.5817 8 16 8H48C52.4183 8 56 11.5817 56 16V48C56 52.4183 52.4183 56 48 56H16C11.5817 56 8 52.4183 8 48V16Z" fill="#1F2AFF"/>
<path d="M4 48V16C4 9.37258 9.37258 4 16 4V8C11.5817 8 8 11.5817 8 16V48L8.01074 48.4121C8.22523 52.6389 11.7199 56 16 56H48L48.4121 55.9893C52.5024 55.7817 55.7817 52.5024 55.9893 48.4121L56 48V16C56 11.7199 52.6389 8.22523 48.4121 8.01074L48 8V4C54.6274 4 60 9.37258 60 16V48C60 54.6274 54.6274 60 48 60H16C9.47609 60 4.16811 54.7939 4.00391 48.3096L4 48ZM48 4V8H16V4H48Z" fill="var(--fill-0, white)"/>
<path d="M48 2L48.3613 2.00488C55.9263 2.19654 62 8.38882 62 16V48L61.9951 48.3613C61.8035 55.9263 55.6112 62 48 62H16C8.38853 62 2.19656 55.9264 2.00488 48.3604L2.00391 48.3477V48.335L2 48.0254V16L2.00488 15.6387C2.19654 8.07368 8.38882 2 16 2H48Z" stroke="var(--stroke-0, #D3D3D3)" stroke-width="4"/>
</g>
<g id="Group 8">
<path id="Vector_2" d="M39.36 29.12C39.76 29.424 40 29.896 40 30.4V38.4C40 38.8243 39.8314 39.2313 39.5314 39.5314C39.2313 39.8314 38.8243 40 38.4 40H25.6C25.1757 40 24.7687 39.8314 24.4686 39.5314C24.1686 39.2313 24 38.8243 24 38.4V30.4C24 30.1516 24.0578 29.9066 24.1689 29.6845C24.28 29.4623 24.4413 29.269 24.64 29.12L31.04 24.32C31.317 24.1123 31.6538 24 32 24C32.3462 24 32.683 24.1123 32.96 24.32L39.36 29.12Z" stroke="var(--stroke-0, white)" stroke-width="2" stroke-linecap="round" stroke-linejoin="round"/>
<path id="Vector_3" d="M40 30.4L32.824 34.96C32.577 35.1147 32.2915 35.1968 32 35.1968C31.7085 35.1968 31.423 35.1147 31.176 34.96L24 30.4" stroke="var(--stroke-0, white)" stroke-width="2" stroke-linecap="round" stroke-linejoin="round"/>
</g>
</g>
</svg>
