<svg preserveAspectRatio="none" width="100%" height="100%" overflow="visible" style="display: block;" viewBox="0 0 24 24" fill="none" xmlns="http://www.w3.org/2000/svg">
<g id="Frame">
<path id="Vector" d="M11 13C10.4501 12.9997 9.9108 12.8483 9.44112 12.5622C8.97144 12.2762 8.58942 11.8665 8.33681 11.3781C8.0842 10.8896 7.97072 10.3411 8.00876 9.79245C8.04681 9.24384 8.23492 8.71624 8.55254 8.26731C8.87016 7.81837 9.30506 7.46538 9.80973 7.24691C10.3144 7.02843 10.8694 6.95288 11.4141 7.0285C11.9588 7.10413 12.4723 7.32802 12.8983 7.67571C13.3244 8.0234 13.6467 8.48152 13.83 9H14C14.5304 9 15.0391 9.21071 15.4142 9.58579C15.7893 9.96086 16 10.4696 16 11C16 11.5304 15.7893 12.0391 15.4142 12.4142C15.0391 12.7893 14.5304 13 14 13H11Z" stroke="var(--stroke-0, white)" stroke-width="2" stroke-linecap="round" stroke-linejoin="round"/>
<path id="Vector_2" d="M12 17V21" stroke="var(--stroke-0, white)" stroke-width="2" stroke-linecap="round" stroke-linejoin="round"/>
<path id="Vector_3" d="M8 21H16" stroke="var(--stroke-0, white)" stroke-width="2" stroke-linecap="round" stroke-linejoin="round"/>
<path id="Vector_4" d="M20 3H4C2.89543 3 2 3.89543 2 5V15C2 16.1046 2.89543 17 4 17H20C21.1046 17 22 16.1046 22 15V5C22 3.89543 21.1046 3 20 3Z" stroke="var(--stroke-0, white)" stroke-width="2" stroke-linecap="round" stroke-linejoin="round"/>
</g>
</svg>
