<svg preserveAspectRatio="none" width="100%" height="100%" overflow="visible" style="display: block;" viewBox="0 0 24 27" fill="none" xmlns="http://www.w3.org/2000/svg">
<g id="Frame" clip-path="url(#clip0_0_10)">
<path id="Vector" d="M12.0161 7.43555C11.207 7.43347 10.4055 7.58827 9.65724 7.89112C8.90898 8.19397 8.22865 8.63893 7.65508 9.2006C6.49671 10.3349 5.84355 11.8758 5.83929 13.4842C5.83502 15.0926 6.48001 16.6368 7.63235 17.777C8.7847 18.9173 10.35 19.5603 11.9839 19.5645C13.6179 19.5686 15.1865 18.9337 16.3449 17.7994C17.5033 16.6651 18.1565 15.1242 18.1607 13.5158C18.165 11.9074 17.52 10.3632 16.3676 9.22297C15.2153 8.0827 13.65 7.43974 12.0161 7.43555ZM11.9839 9.56602C12.5087 9.56394 13.0288 9.66364 13.5145 9.85942C14.0002 10.0552 14.4419 10.3432 14.8145 10.7071C15.1871 11.0709 15.4833 11.5034 15.6861 11.9799C15.8889 12.4564 15.9943 12.9676 15.9964 13.4842C15.9985 14.0008 15.8973 14.5128 15.6984 14.9909C15.4995 15.4689 15.2069 15.9038 14.8373 16.2706C14.4677 16.6373 14.0283 16.9289 13.5442 17.1285C13.0602 17.3281 12.5409 17.4319 12.0161 17.434C11.4913 17.4361 10.9712 17.3364 10.4855 17.1406C9.9998 16.9448 9.55806 16.6568 9.18546 16.2929C8.81287 15.9291 8.51672 15.4966 8.31393 15.0201C8.11114 14.5436 8.00568 14.0324 8.00357 13.5158C8.00146 12.9992 8.10274 12.4872 8.30163 12.0091C8.50052 11.5311 8.79312 11.0962 9.16273 10.7294C9.53234 10.3627 9.97172 10.0711 10.4558 9.87153C10.9398 9.67191 11.4591 9.56809 11.9839 9.56602ZM16.9875 7.1877C16.9875 6.81287 17.1388 6.4534 17.408 6.18835C17.6773 5.92331 18.0424 5.77441 18.4232 5.77441C18.804 5.77441 19.1692 5.92331 19.4384 6.18835C19.7077 6.4534 19.8589 6.81287 19.8589 7.1877C19.8589 7.56252 19.7077 7.92199 19.4384 8.18704C19.1692 8.45208 18.804 8.60098 18.4232 8.60098C18.0424 8.60098 17.6773 8.45208 17.408 8.18704C17.1388 7.92199 16.9875 7.56252 16.9875 7.1877ZM23.9357 8.62207C23.8446 6.72891 23.4054 5.05195 21.9964 3.67031C20.5929 2.28867 18.8893 1.85625 16.9661 1.76133C14.9839 1.65059 9.04286 1.65059 7.06071 1.76133C5.14286 1.85098 3.43929 2.2834 2.03036 3.66504C0.621429 5.04668 0.1875 6.72363 0.0910714 8.6168C-0.0214286 10.568 -0.0214286 16.4162 0.0910714 18.3674C0.182143 20.2605 0.621429 21.9375 2.03036 23.3191C3.43929 24.7008 5.1375 25.1332 7.06071 25.2281C9.04286 25.3389 14.9839 25.3389 16.9661 25.2281C18.8893 25.1385 20.5929 24.7061 21.9964 23.3191C23.4 21.9375 23.8393 20.2605 23.9357 18.3674C24.0482 16.4162 24.0482 10.5732 23.9357 8.62207ZM21.375 20.4609C20.9571 21.4945 20.1482 22.2908 19.0929 22.7074C17.5125 23.3244 13.7625 23.182 12.0161 23.182C10.2696 23.182 6.51429 23.3191 4.93929 22.7074C3.88929 22.2961 3.08036 21.4998 2.65714 20.4609C2.03036 18.9053 2.175 15.2139 2.175 13.4947C2.175 11.7756 2.03571 8.07891 2.65714 6.52852C3.075 5.49492 3.88393 4.69863 4.93929 4.28203C6.51964 3.66504 10.2696 3.80742 12.0161 3.80742C13.7625 3.80742 17.5179 3.67031 19.0929 4.28203C20.1429 4.69336 20.9518 5.48965 21.375 6.52852C22.0018 8.08418 21.8571 11.7756 21.8571 13.4947C21.8571 15.2139 22.0018 18.9105 21.375 20.4609Z" fill="var(--fill-0, white)"/>
</g>
<defs>
<clipPath id="clip0_0_10">
<rect width="24" height="27" fill="white"/>
</clipPath>
</defs>
</svg>
