<svg preserveAspectRatio="none" width="100%" height="100%" overflow="visible" style="display: block;" viewBox="0 0 21 24" fill="none" xmlns="http://www.w3.org/2000/svg">
<g id="Frame" clip-path="url(#clip0_0_14)">
<path id="Vector" d="M21.0234 9.83906C18.9609 9.84375 16.9453 9.20156 15.2672 8.00156V16.3781C15.2672 17.9297 14.7938 19.4437 13.9078 20.7187C13.0219 21.9938 11.7703 22.9688 10.3172 23.5125C8.86406 24.0563 7.27969 24.1453 5.775 23.7609C4.27031 23.3766 2.92031 22.5469 1.89844 21.3797C0.876563 20.2125 0.24375 18.7547 0.0703125 17.2125C-0.103125 15.6703 0.20625 14.1141 0.942188 12.75C1.67813 11.3859 2.81719 10.2797 4.20469 9.57656C5.59219 8.87344 7.15312 8.61563 8.69062 8.82656V13.0406C7.9875 12.8203 7.23281 12.825 6.53437 13.0594C5.83594 13.2938 5.22656 13.7437 4.8 14.3391C4.37344 14.9344 4.14375 15.6562 4.14844 16.3969C4.15312 17.1375 4.39219 17.85 4.82812 18.4453C5.26406 19.0406 5.87812 19.4812 6.58125 19.7062C7.28437 19.9312 8.03906 19.9312 8.7375 19.7016C9.43594 19.4719 10.05 19.0266 10.4813 18.4313C10.9125 17.8359 11.1469 17.1141 11.1469 16.3781V0H15.2719C15.2672 0.346875 15.3 0.698438 15.3609 1.04063C15.5063 1.80469 15.8016 2.53594 16.2375 3.18281C16.6734 3.82969 17.2359 4.38281 17.8875 4.80469C18.8203 5.41875 19.9125 5.74687 21.0281 5.74687V9.84375L21.0234 9.83906Z" fill="var(--fill-0, white)"/>
</g>
<defs>
<clipPath id="clip0_0_14">
<rect width="21" height="24" fill="white"/>
</clipPath>
</defs>
</svg>
