<svg preserveAspectRatio="none" width="100%" height="100%" overflow="visible" style="display: block;" viewBox="0 0 27 24" fill="none" xmlns="http://www.w3.org/2000/svg">
<g id="Frame" clip-path="url(#clip0_0_7)">
<path id="Vector" d="M23.0859 3.27188C23.0766 3.25781 23.0672 3.24375 23.0484 3.23906C21.2625 2.41875 19.3734 1.83281 17.4375 1.5C17.4187 1.49531 17.4 1.5 17.3859 1.50469C17.3719 1.50937 17.3578 1.52344 17.3484 1.54219C17.0906 2.00625 16.8563 2.48906 16.65 2.97656C14.5594 2.65781 12.4359 2.65781 10.35 2.97656C10.1391 2.48437 9.90469 2.00625 9.64219 1.54219C9.63281 1.52813 9.61875 1.51406 9.60469 1.50469C9.59062 1.49531 9.57187 1.49531 9.55312 1.49531C7.61719 1.82812 5.72812 2.41406 3.94219 3.23437C3.92812 3.23906 3.91406 3.25312 3.90469 3.26719C0.332813 8.60156 -0.646875 13.8094 -0.16875 18.9469C-0.16875 18.9609 -0.164063 18.9703 -0.159375 18.9844C-0.154688 18.9984 -0.145313 19.0031 -0.135938 19.0125C1.94531 20.5547 4.27031 21.7312 6.74531 22.4906C6.76406 22.4953 6.78281 22.4953 6.79687 22.4906C6.81094 22.4859 6.82969 22.4719 6.83906 22.4578C7.36875 21.7359 7.84219 20.9672 8.24531 20.1703C8.25 20.1609 8.25469 20.1469 8.25469 20.1328C8.25469 20.1188 8.25469 20.1094 8.25 20.0953C8.24531 20.0813 8.24062 20.0719 8.23125 20.0672C8.22187 20.0625 8.2125 20.0531 8.19844 20.0484C7.45781 19.7625 6.73594 19.4203 6.04687 19.0219C6.03281 19.0125 6.02344 19.0031 6.01406 18.9938C6.00469 18.9844 6 18.9656 6 18.9516C6 18.9375 6 18.9234 6.00937 18.9094C6.01875 18.8953 6.02344 18.8859 6.0375 18.8766C6.18281 18.7688 6.32812 18.6563 6.46406 18.5438C6.47812 18.5344 6.49219 18.525 6.50625 18.525C6.52031 18.525 6.53906 18.525 6.55312 18.5297C11.0625 20.5875 15.9469 20.5875 20.4047 18.5297C20.4187 18.525 20.4375 18.5203 20.4516 18.5203C20.4656 18.5203 20.4844 18.5297 20.4938 18.5391C20.6297 18.6516 20.775 18.7688 20.9203 18.8766C20.9297 18.8859 20.9391 18.8953 20.9484 18.9094C20.9578 18.9234 20.9578 18.9375 20.9578 18.9516C20.9578 18.9656 20.9531 18.9797 20.9437 18.9938C20.9344 19.0078 20.925 19.0172 20.9156 19.0219C20.2266 19.425 19.5094 19.7672 18.7641 20.0438C18.7547 20.0484 18.7406 20.0531 18.7312 20.0625C18.7219 20.0719 18.7172 20.0813 18.7125 20.0953C18.7078 20.1094 18.7078 20.1188 18.7078 20.1328C18.7078 20.1469 18.7125 20.1562 18.7172 20.1703C19.1297 20.9672 19.5984 21.7313 20.1234 22.4578C20.1328 22.4719 20.1516 22.4859 20.1656 22.4906C20.1797 22.4953 20.2031 22.4953 20.2172 22.4906C22.6969 21.7312 25.0266 20.5547 27.1125 19.0125C27.1219 19.0031 27.1313 18.9938 27.1359 18.9844C27.1406 18.975 27.1453 18.9609 27.1453 18.9469C27.7219 13.0031 26.1844 7.84219 23.0719 3.26719L23.0859 3.27188ZM8.92969 15.8203C7.57031 15.8203 6.45469 14.5734 6.45469 13.0453C6.45469 11.5172 7.55156 10.2703 8.92969 10.2703C10.3219 10.2703 11.4281 11.5266 11.4047 13.0453C11.4047 14.5781 10.3078 15.8203 8.92969 15.8203ZM18.0891 15.8203C16.7297 15.8203 15.6141 14.5734 15.6141 13.0453C15.6141 11.5172 16.7109 10.2703 18.0891 10.2703C19.4812 10.2703 20.5875 11.5266 20.5641 13.0453C20.5641 14.5781 19.4766 15.8203 18.0891 15.8203Z" fill="var(--fill-0, white)"/>
</g>
<defs>
<clipPath id="clip0_0_7">
<rect width="27" height="24" fill="white"/>
</clipPath>
</defs>
</svg>
