<svg preserveAspectRatio="none" width="100%" height="100%" overflow="visible" style="display: block;" viewBox="0 0 21.6 19.2005" fill="none" xmlns="http://www.w3.org/2000/svg">
<path id="Vector" d="M15.2925 11.0521C15.1687 11.0371 15.0412 11.0221 14.9175 11.0033C15.045 11.0183 15.1687 11.0371 15.2925 11.0521ZM10.8 8.51707C9.82125 6.61582 7.15875 3.07207 4.68375 1.32458C2.31 -0.351675 1.40625 -0.0629249 0.81 0.207075C0.12375 0.518325 0 1.57208 0 2.19083C0 2.80958 0.34125 7.27582 0.5625 8.02207C1.29375 10.4858 3.90375 11.3183 6.3075 11.0483C6.43125 11.0296 6.555 11.0146 6.6825 10.9958C6.55875 11.0146 6.435 11.0333 6.3075 11.0483C2.78625 11.5733 -0.34125 12.8558 3.76125 17.4196C8.2725 22.0921 9.94125 16.4183 10.8 13.5421C11.6587 16.4183 12.645 21.8858 17.76 17.4196C21.6 13.5421 18.8137 11.5696 15.2925 11.0483C15.1687 11.0333 15.0412 11.0183 14.9175 10.9996C15.045 11.0146 15.1687 11.0333 15.2925 11.0483C17.6962 11.3146 20.3025 10.4821 21.0375 8.02207C21.2587 7.27582 21.6 2.81333 21.6 2.19083C21.6 1.56833 21.4762 0.514575 20.79 0.207075C20.1975 -0.0591749 19.29 -0.351675 16.92 1.32458C14.4412 3.07207 11.7787 6.61582 10.8 8.51707Z" fill="var(--fill-0, #F5FAFC)"/>
</svg>
