<svg preserveAspectRatio="none" width="100%" height="100%" overflow="visible" style="display: block;" viewBox="0 0 64 64" fill="none" xmlns="http://www.w3.org/2000/svg">
<g id="Group 12">
<g id="Vector">
<path d="M8 16C8 11.5817 11.5817 8 16 8H48C52.4183 8 56 11.5817 56 16V48C56 52.4183 52.4183 56 48 56H16C11.5817 56 8 52.4183 8 48V16Z" fill="#008657"/>
<path d="M4 48V16C4 9.37258 9.37258 4 16 4V8C11.5817 8 8 11.5817 8 16V48L8.01074 48.4121C8.22523 52.6389 11.7199 56 16 56H48L48.4121 55.9893C52.5024 55.7817 55.7817 52.5024 55.9893 48.4121L56 48V16C56 11.7199 52.6389 8.22523 48.4121 8.01074L48 8V4C54.6274 4 60 9.37258 60 16V48C60 54.6274 54.6274 60 48 60H16C9.47609 60 4.16811 54.7939 4.00391 48.3096L4 48ZM48 4V8H16V4H48Z" fill="var(--fill-0, white)"/>
<path d="M48 2L48.3613 2.00488C55.9263 2.19654 62 8.38882 62 16V48L61.9951 48.3613C61.8035 55.9263 55.6112 62 48 62H16C8.38853 62 2.19656 55.9264 2.00488 48.3604L2.00391 48.3477V48.335L2 48.0254V16L2.00488 15.6387C2.19654 8.07368 8.38882 2 16 2H48Z" stroke="var(--stroke-0, #D3D3D3)" stroke-width="4"/>
</g>
<g id="Frame">
<path id="Vector_2" d="M32 39.0175L32.0175 38.9981" stroke="var(--stroke-0, white)" stroke-width="2" stroke-linecap="round" stroke-linejoin="round"/>
<path id="Vector_3" d="M23.25 44.95V19.05C23.25 18.4701 23.7201 18 24.3 18H39.7C40.2799 18 40.75 18.4701 40.75 19.05V44.95C40.75 45.5299 40.2799 46 39.7 46H24.3C23.7201 46 23.25 45.5299 23.25 44.95Z" stroke="var(--stroke-0, white)" stroke-width="2"/>
</g>
</g>
</svg>
