<svg width="244" height="24" viewBox="0 0 244 24" xmlns="http://www.w3.org/2000/svg">
  <g fill-rule="nonzero" fill="none">
    <title>Indivisible</title>
  <g fill="#FFF"><path d="M35.02.753h5.083v22.77H35.02zM63.261.753h5.083v22.77h-5.083L52.412 9.255v14.268H47.33V.753h4.758l11.174 14.66zM92.972 3.732c2.17 1.985 3.258 4.75 3.258 8.291 0 3.54-1.058 6.342-3.176 8.403-2.117 2.065-5.349 3.094-9.692 3.094h-7.785V.75h8.045c4.06.003 7.177.996 9.35 2.982zm-3.731 13.535c1.249-1.174 1.874-2.877 1.874-5.116 0-2.235-.625-3.958-1.874-5.161-1.25-1.207-3.166-1.809-5.75-1.809h-2.835v13.845h3.226c2.324.003 4.11-.585 5.359-1.76zM101.602.753h5.083v22.77h-5.083zM121.67 15.248l5.8-14.495h5.503l-9.153 22.77h-4.3L110.367.753h5.507zM136.655.753h5.083v22.77h-5.083zM153.643 5.296c-.49.402-.733.934-.733 1.598 0 .661.299 1.19.897 1.582.598.39 1.976.851 4.136 1.384 2.16.532 3.837 1.331 5.033 2.393 1.194 1.065 1.792 2.617 1.792 4.659 0 2.041-.766 3.698-2.298 4.967-1.532 1.27-3.544 1.907-6.043 1.907-3.606 0-6.851-1.334-9.741-4.007l3.031-3.715c2.453 2.15 4.725 3.225 6.809 3.225.934 0 1.667-.2 2.2-.602.532-.401.798-.943.798-1.627s-.282-1.227-.848-1.628c-.565-.4-1.683-.808-3.357-1.223-2.65-.628-4.586-1.45-5.815-2.459-1.227-1.01-1.842-2.594-1.842-4.757 0-2.16.776-3.827 2.328-5 1.552-1.174 3.492-1.76 5.816-1.76 1.519 0 3.041.26 4.56.783 1.519.523 2.844 1.26 3.975 2.216l-2.574 3.715c-1.976-1.5-4.018-2.249-6.125-2.249-.845-.003-1.513.197-2 .598zM170.075.753h5.082v22.77h-5.082zM192.358 23.523h-9.968V.753h8.86c1.542 0 2.87.184 3.992.552 1.117.368 1.96.868 2.525 1.5 1.019 1.173 1.532 2.498 1.532 3.974 0 1.782-.576 3.107-1.726 3.975-.392.306-.661.493-.816.569-.151.075-.424.2-.815.375 1.41.305 2.535.94 3.373 1.906.835.967 1.253 2.167 1.253 3.6 0 1.585-.543 2.986-1.628 4.202-1.262 1.41-3.455 2.117-6.582 2.117zM187.47 9.972h2.41c1.41 0 2.459-.152 3.142-.457.684-.303 1.026-.96 1.026-1.973 0-1.013-.315-1.677-.943-2.002-.632-.326-1.693-.49-3.193-.49h-2.442v4.922zm0 9.251h3.485c1.453 0 2.544-.178 3.274-.536.727-.358 1.092-1.065 1.092-2.117s-.385-1.75-1.158-2.085c-.772-.335-2.002-.506-3.698-.506h-2.999v5.244h.004zM206.462 23.523V.753h5.083v18.243h9.709v4.527zM243.012.753V5.28h-11.336v4.692h10.195v4.333h-10.195v4.724h11.694v4.494h-16.777V.753z"></path></g><path d="M12.621 23.628h-5.53V17.35c0-2.39 1.957-4.35 4.35-4.35h1.184v10.63h-.004z" fill="#CA4948"></path><path d="M12.621 23.628h5.53V17.35c0-2.39-1.956-4.35-4.35-4.35h-1.183v10.63h.003z" fill="#6C9FC2"></path><path d="M12.621 11.07a5.206 5.206 0 010-10.412V11.07z" fill="#CA4948"></path><path d="M25.111 23.628h-5.53V17.35c0-2.39 1.957-4.35 4.35-4.35h1.184v10.63h-.004zM25.108 11.07a5.206 5.206 0 010-10.412V11.07z" fill="#FFF"></path><path d="M12.621 11.07a5.206 5.206 0 000-10.412V11.07zM.135 23.628h5.53V17.35c0-2.39-1.957-4.35-4.35-4.35H.132v10.63h.003zM.135 11.07a5.206 5.206 0 000-10.412V11.07z" fill="#6C9FC2"></path></g>
</svg>