<?xml version="1.0" encoding="UTF-8"?> <!-- Generator: Adobe Illustrator 24.2.3, SVG Export Plug-In . SVG Version: 6.00 Build 0) --> <svg xmlns="http://www.w3.org/2000/svg" xmlns:xlink="http://www.w3.org/1999/xlink" version="1.1" id="Layer_1" x="0px" y="0px" viewBox="0 0 603.1 96.4" style="enable-background:new 0 0 603.1 96.4;" xml:space="preserve"> <style type="text/css"> .st0{fill:#D75938;} .st1{fill:#547778;} .st2{fill:#FFFFFF;} </style> <g> <path class="st0" d="M155.8,90.5h-16.4l-1.8-15.6c-1.5-13.1-2.9-26.1-3.4-35c-0.5,8.9-1.8,21.8-3.3,34.9L129,90.6h-16.4l-9.5-88.2 h16l1.4,17.5c0.8,9.6,1.5,22.9,1.9,34.5c0.8-11.6,2.1-25.1,3-34.5L127,2.4h14.1l1.8,17.5c1,9.5,2.3,22.9,3,34.5 c0.4-11.6,1.3-25,1.9-34.5l1.3-17.5h16.1L155.8,90.5z"></path> <path class="st0" d="M167.9,90.5V2.3h17.6v88.2H167.9z"></path> <path class="st0" d="M220.5,90.5l-6.3-20.3c-3-10-6.3-21.7-7.6-27.7c0.3,6.1,0.5,16.9,0.5,26.3v21.7H191V2.3h15.3l4.3,13 c3.3,10,7.1,22.7,8.4,28.7c-0.4-5.8-0.8-18.5-0.8-27.5V2.3h16.1v88.2H220.5z"></path> <path class="st0" d="M269.1,90.5l-6.3-20.3c-3-10-6.3-21.7-7.6-27.7c0.3,6.1,0.5,16.9,0.5,26.3v21.7h-16.1V2.3h15.3l4.3,13 c3.3,10,7.1,22.7,8.4,28.7c-0.4-5.8-0.8-18.5-0.8-27.5V2.3h16.1v88.2H269.1z"></path> <path class="st0" d="M288.4,90.5V2.3H306v88.2H288.4z"></path> <path class="st0" d="M341,90.5l-6.3-20.3c-3-10-6.3-21.7-7.6-27.7c0.3,6.1,0.5,16.9,0.5,26.3v21.7h-16.1V2.3h15.3l4.3,13 c3.3,10,7.1,22.7,8.4,28.7c-0.4-5.8-0.8-18.5-0.8-27.5V2.3h16.1v88.2H341z"></path> <path class="st0" d="M381,91.9c-15.8,0-22.2-13.2-22.2-45.5c0-32.5,6.7-45.5,22.6-45.5c14.9,0,19.3,11.1,20.4,28l-17.1,3 c-0.5-13-0.8-16-3.5-16c-3.4,0-4.2,4-4.2,30.5c0,26,0.6,30.5,4.5,30.5c3.3,0,4-2.8,4-11.2v-7.2H381V44.4h21.4v16.9 C402.5,79,396.7,91.9,381,91.9z"></path> <path class="st1" d="M447.6,90.5V72.3c0-10.2,0.3-19.4,0.6-27.5c-1.3,7.2-4.2,18.8-6.6,28.4l-5,19.9l-5-19.9 c-2.4-9.5-5.2-21.2-6.4-28.4c0.3,7.7,0.6,17.4,0.6,27.5v18.2h-15.4V2.3h15.9l4.7,19.8c2.3,9.8,4.7,20.3,5.7,27.7 c1-7.4,3.5-18.2,5.8-27.9L447,2.2h15.9v88.2L447.6,90.5L447.6,90.5z"></path> <path class="st1" d="M493.8,90.5L492,73.4h-8.3l-1.6,17.1H465l13.6-88.2h18.7l13.5,88.2H493.8z M490.2,52.5 c-0.6-7.9-1.9-20.4-2.5-30.5c-0.5,10.1-1.6,22.6-2.4,30.6l-0.5,5.7h5.9L490.2,52.5z"></path> <path class="st1" d="M537.8,90.5l-6.2-37.7h-1.5v37.7h-17.2V2.3h21.6c11.1,0,20.3,6.7,20.3,25c0,9.7-2.6,16.5-7.3,20.7l8.1,42.6 h-17.8V90.5z M531.9,15.9h-1.8v23.8h1.5c4.2,0,5.4-3.4,5.4-11.8C537.1,18.8,535.9,15.9,531.9,15.9z"></path> <path class="st1" d="M585,90.5l-7.1-36.7l-1.4,4.5v32.1h-17.6V2.2h17.6v10.3c0,8.7-0.1,15.6-0.4,22.6c1.6-7.1,4-16.4,5.9-22.7 l3-10.2h17.9l-11.1,32.9l11.3,55.3H585V90.5z"></path> </g> <g> <circle class="st1" cx="48.2" cy="48.2" r="48.2"></circle> <ellipse transform="matrix(4.531443e-02 -0.999 0.999 4.531443e-02 -2.1346 94.1663)" class="st2" cx="48.2" cy="48.2" rx="32.1" ry="32.1"></ellipse> <circle class="st0" cx="48.2" cy="48.2" r="15.5"></circle> </g> </svg> 